<svg width="13" height="13" viewBox="0 0 13 13" fill="none" xmlns="http://www.w3.org/2000/svg">
<path d="M4.10432 5.44722L5.56283 5.10572V8.77058C5.56283 8.96758 5.71907 9.12527 5.91446 9.12527H7.35998C7.55528 9.12527 7.71161 8.96767 7.71161 8.77058V5.10572L9.17013 5.44722C9.59987 5.55232 9.92544 5.07942 9.69098 4.69844L7.06041 0.495006C7.00836 0.403012 6.93015 0.337406 6.83904 0.298008C6.60468 0.206013 6.35722 0.284905 6.23995 0.481904L3.59635 4.68534C3.33601 5.07943 3.67456 5.55232 4.10433 5.44721L4.10432 5.44722Z" fill="white" fill-opacity="0.7"/>
<path d="M12.0872 7.99526H10.6546C10.4593 7.99526 10.303 8.15286 10.303 8.34995V10.583H2.97126V8.34995C2.97126 8.15295 2.81501 7.99526 2.61962 7.99526H1.18708C0.991782 7.99526 0.835449 8.15286 0.835449 8.34995V12.3826C0.835449 12.5796 0.991693 12.7373 1.18708 12.7373H12.1001C12.2954 12.7373 12.4517 12.5797 12.4517 12.3826L12.4518 8.34971C12.4388 8.15271 12.2825 7.99512 12.0872 7.99512L12.0872 7.99526Z" fill="white" fill-opacity="0.7"/>
</svg>
