<svg width="27" height="27" viewBox="0 0 27 27" fill="none" xmlns="http://www.w3.org/2000/svg">
<path d="M18.6923 0H8.30769C6.10443 0 3.99137 0.875275 2.4332 2.4332C0.875275 3.99137 0 6.10443 0 8.30769V18.6923C0 20.8956 0.875275 23.0086 2.4332 24.5668C3.99137 26.1247 6.10443 27 8.30769 27H18.6923C20.8956 27 23.0086 26.1247 24.5668 24.5668C26.1247 23.0086 27 20.8956 27 18.6923V8.30769C27 6.10443 26.1247 3.99137 24.5668 2.4332C23.0086 0.875275 20.8956 0 18.6923 0ZM18.6923 14.5385H14.5385V18.6923C14.5385 19.0634 14.3405 19.4062 14.0192 19.5917C13.698 19.7771 13.302 19.7771 12.9808 19.5917C12.6595 19.4062 12.4615 19.0634 12.4615 18.6923V14.5385H8.30769C7.93658 14.5385 7.59376 14.3405 7.40832 14.0192C7.22289 13.698 7.22289 13.302 7.40832 12.9808C7.59376 12.6595 7.93659 12.4615 8.30769 12.4615H12.4615V8.30769C12.4615 7.93658 12.6595 7.59376 12.9808 7.40832C13.302 7.22289 13.698 7.22289 14.0192 7.40832C14.3405 7.59376 14.5385 7.93659 14.5385 8.30769V12.4615H18.6923C19.0634 12.4615 19.4062 12.6595 19.5917 12.9808C19.7771 13.302 19.7771 13.698 19.5917 14.0192C19.4062 14.3405 19.0634 14.5385 18.6923 14.5385Z" fill="#FF5C00"/>
</svg>
