<svg width="14" height="14" viewBox="0 0 14 14" fill="none" xmlns="http://www.w3.org/2000/svg">
<path d="M0.716671 0.875C0.57658 0.875 0.46875 0.982834 0.46875 1.12293C0.46875 1.26303 0.576186 1.36997 0.716671 1.36997H12.94C13.0805 1.36997 13.187 1.26342 13.187 1.12293C13.187 0.982341 13.0801 0.875 12.94 0.875H0.716671ZM4.23783 3.93082C4.09774 3.93082 3.9908 4.03826 3.9908 4.17875C3.9908 4.31934 4.09735 4.42579 4.23783 4.42579H12.9395C13.08 4.42579 13.1874 4.31884 13.1874 4.17875C13.1874 4.03865 13.0795 3.93082 12.9395 3.93082H4.23783ZM0.716671 6.98739C0.576087 6.98739 0.46875 7.09434 0.46875 7.23444C0.46875 7.37453 0.576186 7.48148 0.716671 7.48148H12.94C13.0805 7.48148 13.187 7.37492 13.187 7.23444C13.187 7.09385 13.0804 6.98739 12.94 6.98739H0.716671ZM4.23884 10.0432C4.09826 10.0432 3.99092 10.1502 3.99092 10.2903C3.99092 10.4304 4.09875 10.5382 4.23884 10.5382H12.9405C13.0806 10.5382 13.1875 10.4307 13.1875 10.2903C13.1875 10.1497 13.081 10.0432 12.9405 10.0432H4.23884ZM0.716671 13.0988C0.576087 13.0988 0.46875 13.2057 0.46875 13.3458C0.46875 13.4859 0.57658 13.5938 0.716671 13.5938H12.94C13.0801 13.5938 13.187 13.4863 13.187 13.3458C13.187 13.2052 13.0804 13.0988 12.94 13.0988H0.716671Z" fill="#E8E8E8"/>
</svg>
