<svg width="14" height="14" viewBox="0 0 14 14" fill="none" xmlns="http://www.w3.org/2000/svg">
<path d="M0.838517 0.875C0.666465 0.875 0.53125 1.01021 0.53125 1.18226C0.53125 1.35431 0.666077 1.48865 0.838517 1.48865H12.9436C13.1161 1.48865 13.25 1.3547 13.25 1.18226C13.25 1.00982 13.1157 0.875 12.9436 0.875H0.838517ZM0.838517 3.90084C0.666465 3.90084 0.53125 4.03605 0.53125 4.2081C0.53125 4.38015 0.666077 4.51448 0.838517 4.51448H9.456C9.62844 4.51448 9.76239 4.38054 9.76239 4.2081C9.76239 4.03566 9.62805 3.90084 9.456 3.90084H0.838517ZM0.838517 6.92793C0.666075 6.92793 0.53125 7.06226 0.53125 7.23431C0.53125 7.40636 0.666077 7.5407 0.838517 7.5407H12.9436C13.1161 7.5407 13.25 7.40675 13.25 7.23431C13.25 7.06187 13.1161 6.92793 12.9436 6.92793H0.838517ZM0.838517 9.95376C0.666075 9.95376 0.53125 10.0881 0.53125 10.2602C0.53125 10.4322 0.666467 10.5674 0.838517 10.5674H9.456C9.62805 10.5674 9.76239 10.4326 9.76239 10.2602C9.76239 10.0877 9.62844 9.95376 9.456 9.95376H0.838517ZM0.838517 12.9801C0.666075 12.9801 0.53125 13.1144 0.53125 13.2865C0.53125 13.4585 0.666467 13.5938 0.838517 13.5938H12.9436C13.1157 13.5938 13.25 13.4589 13.25 13.2865C13.25 13.114 13.1161 12.9801 12.9436 12.9801H0.838517Z" fill="#E8E8E8"/>
</svg>
