<svg width="13" height="14" viewBox="0 0 13 14" fill="none" xmlns="http://www.w3.org/2000/svg">
<path d="M12.7945 0.875H0.486484C0.373122 0.875 0.28125 0.966874 0.28125 1.08024C0.28125 1.1936 0.373122 1.28548 0.486484 1.28548H12.7948C12.908 1.28538 12.9999 1.19351 12.9999 1.08024C12.9999 0.966874 12.908 0.875 12.7947 0.875H12.7945Z" fill="#E8E8E8"/>
<path d="M12.7945 3.33691H0.486484C0.373122 3.33691 0.28125 3.42869 0.28125 3.54196C0.28125 3.65532 0.373122 3.74719 0.486484 3.74719H12.7948C12.9081 3.74719 13 3.65532 13 3.54196C12.9999 3.42869 12.908 3.33691 12.7947 3.33691H12.7945Z" fill="#E8E8E8"/>
<path d="M12.7945 5.79883H0.486484C0.373122 5.79883 0.28125 5.8907 0.28125 6.00387C0.28125 6.11723 0.373122 6.20911 0.486484 6.20911H12.7948C12.9081 6.20911 13 6.11723 13 6.00387C12.9999 5.8907 12.908 5.79883 12.7947 5.79883H12.7945Z" fill="#E8E8E8"/>
<path d="M12.7945 8.25977H0.486484C0.373122 8.25977 0.28125 8.35164 0.28125 8.465C0.28125 8.57837 0.373122 8.67024 0.486484 8.67024H12.7948C12.9081 8.67024 13 8.57837 13 8.465C12.9999 8.35164 12.908 8.25977 12.7947 8.25977H12.7945Z" fill="#E8E8E8"/>
<path d="M12.7945 10.7217H0.486484C0.373122 10.7217 0.28125 10.8136 0.28125 10.9269C0.28125 11.0403 0.373122 11.1322 0.486484 11.1322H12.7948C12.9081 11.1322 13 11.0403 13 10.9269C12.9999 10.8136 12.908 10.7217 12.7947 10.7217H12.7945Z" fill="#E8E8E8"/>
<path d="M12.7945 13.1831H0.486484C0.373122 13.1831 0.28125 13.275 0.28125 13.3882C0.28125 13.5016 0.373122 13.5935 0.486484 13.5935H12.7948C12.908 13.5935 12.9999 13.5016 12.9999 13.3882C12.9999 13.275 12.908 13.1831 12.7947 13.1831H12.7945Z" fill="#E8E8E8"/>
</svg>
