<svg width="14" height="14" viewBox="0 0 14 14" fill="none" xmlns="http://www.w3.org/2000/svg">
<path d="M12.9361 6.93164H0.782615C0.627158 6.93164 0.5 7.06789 0.5 7.23445C0.5 7.40101 0.627165 7.53726 0.782615 7.53726H12.9361C13.0916 7.53726 13.2188 7.40101 13.2188 7.23445C13.2188 7.06789 13.0916 6.93164 12.9361 6.93164Z" fill="#E8E8E8"/>
<path d="M0.782615 1.48062H12.9361C13.0916 1.48062 13.2188 1.34436 13.2188 1.17781C13.2188 1.01125 13.0916 0.875 12.9361 0.875H0.782615C0.627158 0.875 0.5 1.01125 0.5 1.17781C0.5 1.34436 0.627165 1.48062 0.782615 1.48062Z" fill="#E8E8E8"/>
<path d="M12.9361 12.9878H0.782615C0.627158 12.9878 0.5 13.124 0.5 13.2906C0.5 13.4572 0.627165 13.5934 0.782615 13.5934H12.9361C13.0916 13.5934 13.2188 13.4572 13.2188 13.2906C13.2188 13.124 13.0916 12.9878 12.9361 12.9878Z" fill="#E8E8E8"/>
<path d="M2.61953 3.90332C2.46407 3.90332 2.33691 4.03957 2.33691 4.20613C2.33691 4.37268 2.46408 4.50894 2.61953 4.50894H11.0987C11.2542 4.50894 11.3813 4.37268 11.3813 4.20613C11.3813 4.03957 11.2542 3.90332 11.0987 3.90332H2.61953Z" fill="#E8E8E8"/>
<path d="M11.0987 10.5661C11.2542 10.5661 11.3813 10.4298 11.3813 10.2633C11.3813 10.0967 11.2542 9.96045 11.0987 9.96045H2.61953C2.46407 9.96045 2.33691 10.0967 2.33691 10.2633C2.33691 10.4298 2.46408 10.5661 2.61953 10.5661H11.0987Z" fill="#E8E8E8"/>
</svg>
