<svg width="48" height="65" viewBox="0 0 48 65" fill="none" xmlns="http://www.w3.org/2000/svg">
<path d="M30.2909 33.3921H24.7374L24.738 38.9451H22.8629V33.3916L17.3095 33.3921V31.5171H22.8629L22.8624 25.9636H24.7374V31.5171L30.2909 31.5166V33.3921ZM47.6 11.3952V64.9091H0V0H36.2048L47.6 11.3952ZM43.9939 14.2797H34.0411V3.60593H3.60593V61.3029H43.9938L43.9939 14.2797ZM37.6472 6.41866V10.6737H41.6139L37.6472 6.41866ZM36.4212 32.4544C36.4212 39.3783 30.7957 45.0756 23.7999 45.0756C16.8042 45.0756 11.1787 39.3783 11.1787 32.4544C11.1787 25.5305 16.876 19.8332 23.7999 19.8332C30.7238 19.8332 36.4212 25.5305 36.4212 32.4544ZM33.8967 32.4544C33.8967 26.901 29.3529 22.3577 23.7999 22.3577C18.2465 22.3577 13.7032 26.9015 13.7032 32.4544C13.7032 38.0079 18.247 42.5511 23.7999 42.5511C29.3534 42.5511 33.8967 38.0079 33.8967 32.4544Z" fill="#FFFFFF"/>
</svg>
