<?xml version="1.0" encoding="UTF-8"?>
<svg width="14px" height="14px" viewBox="0 0 14 14" version="1.1" xmlns="http://www.w3.org/2000/svg" xmlns:xlink="http://www.w3.org/1999/xlink">
    <title>4E567000-0A22-4409-A241-509E847E8481</title>
    <defs>
        <filter id="filter-1">
            <feColorMatrix in="SourceGraphic" type="matrix" values="0 0 0 0 0.231373 0 0 0 0 0.847059 0 0 0 0 0.662745 0 0 0 1.000000 0"></feColorMatrix>
        </filter>
    </defs>
    <g id="V2" stroke="none" stroke-width="1" fill="none" fill-rule="evenodd">
        <g id="_VIDEO/-FIRST-SCREEN-/-LIBRARY-FULL" transform="translate(-322.000000, -346.000000)">
            <g id="Group-6-Copy" transform="translate(132.000000, 271.000000)" filter="url(#filter-1)">
                <g transform="translate(187.000000, 75.000000)">
                    <g id="ic_apps" transform="translate(3.000000, 0.000000)">
                        <g id="-Round-/-Action-/-settings" transform="translate(0.000000, 0.000000)">
                            <polygon id="Path" points="0 0 14 0 14 14 0 14"></polygon>
                            <path d="M11.3341667,7.57166667 C11.3575,7.385 11.375,7.19833333 11.375,7 C11.375,6.80166667 11.3575,6.615 11.3341667,6.42833333 L12.565,5.46583333 C12.6758333,5.37833333 12.705,5.22083333 12.635,5.0925 L11.4683333,3.07416667 C11.3983333,2.94583333 11.2408333,2.89916667 11.1125,2.94583333 L9.66,3.52916667 C9.35666667,3.29583333 9.03,3.10333333 8.67416667,2.9575 L8.4525,1.41166667 C8.435,1.27166667 8.3125,1.16666667 8.16666667,1.16666667 L5.83333333,1.16666667 C5.6875,1.16666667 5.565,1.27166667 5.5475,1.41166667 L5.32583333,2.9575 C4.97,3.10333333 4.64333333,3.30166667 4.34,3.52916667 L2.8875,2.94583333 C2.75333333,2.89333333 2.60166667,2.94583333 2.53166667,3.07416667 L1.365,5.0925 C1.28916667,5.22083333 1.32416667,5.37833333 1.435,5.46583333 L2.66583333,6.42833333 C2.6425,6.615 2.625,6.8075 2.625,7 C2.625,7.1925 2.6425,7.385 2.66583333,7.57166667 L1.435,8.53416667 C1.32416667,8.62166667 1.295,8.77916667 1.365,8.9075 L2.53166667,10.9258333 C2.60166667,11.0541667 2.75916667,11.1008333 2.8875,11.0541667 L4.34,10.4708333 C4.64333333,10.7041667 4.97,10.8966667 5.32583333,11.0425 L5.5475,12.5883333 C5.565,12.7283333 5.6875,12.8333333 5.83333333,12.8333333 L8.16666667,12.8333333 C8.3125,12.8333333 8.435,12.7283333 8.4525,12.5883333 L8.67416667,11.0425 C9.03,10.8966667 9.35666667,10.6983333 9.66,10.4708333 L11.1125,11.0541667 C11.2466667,11.1066667 11.3983333,11.0541667 11.4683333,10.9258333 L12.635,8.9075 C12.705,8.77916667 12.6758333,8.62166667 12.565,8.53416667 L11.3341667,7.57166667 Z M7,9.04166667 C5.87416667,9.04166667 4.95833333,8.12583333 4.95833333,7 C4.95833333,5.87416667 5.87416667,4.95833333 7,4.95833333 C8.12583333,4.95833333 9.04166667,5.87416667 9.04166667,7 C9.04166667,8.12583333 8.12583333,9.04166667 7,9.04166667 Z" id="🔹Icon-Color" fill="#1D1D1D"></path>
                        </g>
                    </g>
                </g>
            </g>
        </g>
    </g>
</svg>