<svg width="20" height="23" viewBox="0 0 20 23" fill="none" xmlns="http://www.w3.org/2000/svg">
<path d="M12.4365 3.83866L16.505 8.5402L6.20658 20.4397L2.14022 15.7398L12.4365 3.83866ZM19.592 2.70436L17.7776 0.607747C17.4408 0.218681 16.9833 0 16.5059 0C16.0286 0 15.571 0.218677 15.2343 0.607747L13.4965 2.61626L17.5646 7.31781L19.5919 4.97509C19.8532 4.67363 20 4.26532 20 3.83964C20 3.41397 19.8532 3.00567 19.5919 2.7042L19.592 2.70436ZM0.0113343 22.3488C-0.0238215 22.5285 0.0240294 22.7164 0.137868 22.8459C0.251844 22.9754 0.415763 23.0282 0.571467 22.9855L5.10495 21.7151L1.0386 17.0136L0.0113343 22.3488Z" fill="#E8E8E8"/>
</svg>
