<svg width="14" height="14" viewBox="0 0 14 14" fill="none" xmlns="http://www.w3.org/2000/svg">
<path d="M9.69231 0H4.30769C3.16526 0 2.0696 0.434936 1.26166 1.20909C0.453846 1.98337 0 3.03338 0 4.12821V9.28846C0 10.3833 0.453846 11.4333 1.26166 12.2076C2.0696 12.9817 3.16526 13.4167 4.30769 13.4167H9.69231C10.8347 13.4167 11.9304 12.9817 12.7383 12.2076C13.5462 11.4333 14 10.3833 14 9.28846V4.12821C14 3.03338 13.5462 1.98337 12.7383 1.20909C11.9304 0.434936 10.8347 0 9.69231 0ZM9.69231 7.22436H7.53846V9.28846C7.53846 9.47287 7.43582 9.64322 7.26923 9.73537C7.10264 9.82752 6.89735 9.82752 6.73077 9.73537C6.56418 9.64322 6.46154 9.47287 6.46154 9.28846V7.22436H4.30769C4.11526 7.22436 3.93751 7.12599 3.84135 6.96635C3.7452 6.8067 3.7452 6.60996 3.84135 6.45032C3.93751 6.29068 4.11527 6.19231 4.30769 6.19231H6.46154V4.12821C6.46154 3.9438 6.56418 3.77344 6.73077 3.6813C6.89736 3.58915 7.10265 3.58915 7.26923 3.6813C7.43582 3.77344 7.53846 3.9438 7.53846 4.12821V6.19231H9.69231C9.88474 6.19231 10.0625 6.29067 10.1586 6.45032C10.2548 6.60997 10.2548 6.8067 10.1586 6.96635C10.0625 7.12599 9.88473 7.22436 9.69231 7.22436Z" fill="#E8E8E8"/>
</svg>
