<svg width="85" height="48" viewBox="0 0 85 48" fill="none" xmlns="http://www.w3.org/2000/svg">
<path d="M46.4028 18.2029C40.9969 18.2029 36.5986 22.6004 36.5986 28.007C36.5986 33.413 40.9961 37.8112 46.4028 37.8112C51.8087 37.8112 56.2069 33.4137 56.2069 28.007C56.2062 22.6004 51.8087 18.2029 46.4028 18.2029ZM51.0359 29.097L44.7358 33.3299C44.5152 33.479 44.2597 33.5535 44.0035 33.5535C43.7921 33.5535 43.5792 33.5024 43.3855 33.3995C42.9568 33.171 42.6893 32.7247 42.6893 32.24L42.69 23.7741C42.69 23.2887 42.9576 22.8424 43.3862 22.6146C43.8148 22.3875 44.3335 22.4117 44.7366 22.6842L51.0366 26.9171C51.4 27.1605 51.6178 27.5699 51.6178 28.0078C51.6171 28.4442 51.3992 28.8536 51.0359 29.097L51.0359 29.097Z" fill="#FFFFFF"/>
<path d="M68.7698 15.9885H68.6173C66.2947 6.62923 57.9182 0 48.1348 0C39.8777 0 32.4004 4.86584 28.9766 12.2757C27.5184 11.7499 25.9927 11.4958 24.416 11.4958C17.2098 11.4958 11.2931 17.1252 10.8345 24.2122C4.76447 24.7543 0 29.875 0 36.0806C0 42.6595 5.35759 48 11.9194 48H68.7708C77.6041 48 84.7761 40.8109 84.7761 31.9946C84.7761 23.1776 77.6041 15.9885 68.7708 15.9885H68.7698ZM46.4053 41.2015C39.1317 41.2015 33.2143 35.284 33.2143 28.0104C33.2143 20.7368 39.1317 14.8193 46.4053 14.8193C53.6789 14.8193 59.5964 20.7368 59.5964 28.0104C59.5964 35.284 53.6789 41.2015 46.4053 41.2015Z" fill="#FFFFFF"/>
</svg>
