<svg width="39" height="40" viewBox="0 0 39 40" fill="none" xmlns="http://www.w3.org/2000/svg">
<path d="M37.8109 17.301L34.8173 15.2914L36.4167 12.0517C36.7857 11.2725 36.7448 10.4115 36.3346 9.67315C35.9243 8.93512 35.1454 8.44278 34.2841 8.40191L30.6751 8.1559L30.4291 4.58809C30.3882 3.72674 29.8959 2.9887 29.1578 2.53759C28.4198 2.12737 27.5176 2.08646 26.7793 2.45549L23.5805 4.05488L21.5709 1.06122C20.6277 -0.33305 18.29 -0.37428 17.3469 1.06122L15.3784 4.05488L12.1388 2.45549C11.3595 2.08646 10.4985 2.12737 9.76022 2.53759C9.02218 2.94781 8.52984 3.72674 8.48898 4.58809L8.24296 8.19705L4.67516 8.44307C3.8138 8.48398 3.07576 8.97629 2.62465 9.71431C2.21443 10.4523 2.17353 11.3546 2.54255 12.1338L4.14194 15.3735L1.14828 17.383C0.451148 17.8751 0 18.6543 0 19.5156C0 20.377 0.410218 21.1559 1.14828 21.6482L4.14194 23.6578L2.54255 26.8975C2.17353 27.6767 2.21443 28.5789 2.62465 29.276C3.03487 30.0141 3.8138 30.4652 4.67516 30.5473L8.28412 30.7933L8.53013 34.3611C8.57104 35.2225 9.06335 35.9605 9.80137 36.4116C10.5394 36.8218 11.4416 36.8627 12.18 36.4937L15.4196 34.8943L17.4292 37.888C17.9212 38.5851 18.7004 39.0363 19.5618 39.0363C20.4231 39.0363 21.202 38.626 21.6944 37.888L23.7039 34.8943L26.9436 36.4937C27.7229 36.8627 28.5838 36.8218 29.3222 36.4116C30.0602 36.0014 30.5525 35.2225 30.5934 34.3611L30.8394 30.7521L34.4484 30.5061C35.3097 30.4652 36.0478 29.9729 36.4989 29.2349C36.9091 28.4969 36.95 27.5946 36.581 26.8563L34.8581 23.5346L37.8517 21.525C38.5489 21.033 39 20.2538 39 19.3924C38.9591 18.5313 38.5489 17.7521 37.8109 17.301H37.8109ZM32.7256 21.1968C31.6594 21.894 31.2901 23.2883 31.8642 24.4365L33.2997 27.3484L30.0601 27.5535C28.7889 27.6356 27.7636 28.6608 27.6815 29.932L27.4764 33.1717L24.5645 31.7362C23.4163 31.1621 22.022 31.5311 21.3249 32.5976L19.4795 35.3454L17.675 32.6387C17.183 31.9007 16.3625 31.4904 15.5424 31.4904C15.1734 31.4904 14.7631 31.5725 14.435 31.7364L11.5232 33.1719L11.2775 29.932C11.1954 28.6608 10.1701 27.6355 8.89887 27.5534L5.65922 27.3483L7.09472 24.4364C7.66885 23.2882 7.29983 21.8939 6.23336 21.1968L3.52663 19.3923L6.23336 17.5878C7.29955 16.8906 7.66886 15.4963 7.09472 14.3481L5.65922 11.4362L8.89887 11.2311C10.1701 11.149 11.1954 10.1238 11.2775 8.85256L11.4826 5.61291L14.3944 7.04841C15.5427 7.62253 16.937 7.25351 17.6341 6.18705L19.4386 3.48031L21.2431 6.18705C21.9402 7.25324 23.3346 7.62255 24.4828 7.04841L27.3946 5.61291L27.5997 8.85256C27.6818 10.1238 28.7071 11.149 29.9783 11.2311L33.218 11.4362L31.7825 14.3481C31.2083 15.4964 31.5774 16.8907 32.6438 17.5878L35.3506 19.3923L32.7256 21.1968Z" fill="#F4F7F9"/>
<path d="M23.5806 17.6701C23.2525 17.1781 22.4323 17.1781 22.1042 17.6701L20.7099 19.7206L18.0853 15.9068C17.7572 15.4148 16.937 15.4148 16.6089 15.9068L11.9338 22.7143C11.7287 23.0015 11.7287 23.3293 11.8929 23.6574C12.0568 23.9446 12.344 24.1495 12.6721 24.1495H26.2465C26.5746 24.1495 26.9027 23.9855 27.0257 23.6574C27.1897 23.3702 27.1488 23.0012 26.9848 22.7143L23.5806 17.6701Z" fill="#F4F7F9"/>
<path d="M24.0317 13.4051C24.0317 14.4695 23.1687 15.3325 22.1042 15.3325C21.0398 15.3325 20.1768 14.4695 20.1768 13.4051C20.1768 12.3406 21.0398 11.4776 22.1042 11.4776C23.1687 11.4776 24.0317 12.3406 24.0317 13.4051Z" fill="#F4F7F9"/>
</svg>
