<svg width="78" height="37" viewBox="0 0 78 37" fill="none" xmlns="http://www.w3.org/2000/svg">
<rect x="0.00012207" width="78.0006" height="36.5109" rx="3.31918" fill="#FF5C00"/>
<path d="M54.5351 8.64531C54.2418 8.64595 53.9526 8.71592 53.6906 8.84915L46.9756 12.2394V9.37696C46.9756 8.87055 46.7766 8.38523 46.4222 8.02739C46.0678 7.66955 45.5869 7.46826 45.0856 7.46826H24.2945C23.7933 7.46826 23.3127 7.66955 22.9583 8.02739C22.6036 8.38523 22.4045 8.87058 22.4045 9.37696V24.6451V24.6448C22.4045 25.1512 22.6036 25.6366 22.9583 25.9944C23.3127 26.3522 23.7933 26.5535 24.2945 26.5535H45.0856C45.5868 26.5535 46.0678 26.3522 46.4222 25.9944C46.7766 25.6366 46.9756 25.1512 46.9756 24.6448V21.7821L53.6906 25.1723C54.2763 25.4707 54.9734 25.44 55.5316 25.0918C56.0894 24.7438 56.4283 24.1279 56.4261 23.4655V10.5562C56.4261 10.0498 56.227 9.56383 55.8723 9.20566C55.518 8.84718 55.037 8.64589 54.5351 8.64525L54.5351 8.64531Z" fill="white"/>
<path d="M55.41 29.4558H52.8789V27.385C52.8789 26.9277 52.4215 26.5535 51.8624 26.5535C51.3033 26.5535 50.8459 26.9277 50.8459 27.385V29.4558H48.3148C47.7557 29.4558 47.2983 29.83 47.2983 30.2874C47.2983 30.7447 47.7557 31.1189 48.3148 31.1189H50.8459L50.8455 33.19C50.8455 33.6474 51.3029 34.0216 51.862 34.0216C52.4211 34.0216 52.8785 33.6474 52.8785 33.19V31.1193H55.4096C55.9687 31.1193 56.4261 30.7451 56.4261 30.2877C56.4269 29.83 55.9695 29.4558 55.41 29.4558V29.4558Z" fill="white"/>
</svg>
