<svg width="6" height="6" viewBox="0 0 6 6" fill="none" xmlns="http://www.w3.org/2000/svg">
<path d="M5.50002 6C5.6275 6 5.75627 5.95126 5.85377 5.85377C6.04874 5.65881 6.04874 5.34256 5.85377 5.14629L3.70749 3L5.85377 0.853715C6.04874 0.658748 6.04874 0.342501 5.85377 0.146226C5.65881 -0.0487419 5.34256 -0.0487419 5.14629 0.146226L3 2.29251L0.853715 0.146226C0.658747 -0.0487419 0.342501 -0.0487419 0.146226 0.146226C-0.0487419 0.341193 -0.0487419 0.65744 0.146226 0.853715L2.29251 3L0.146226 5.14629C-0.0487419 5.34125 -0.0487419 5.6575 0.146226 5.85377C0.243709 5.95126 0.372501 6 0.499981 6C0.627461 6 0.756236 5.95126 0.853737 5.85377L3.00002 3.70749L5.14631 5.85377C5.24379 5.95126 5.37258 6 5.50006 6H5.50002Z" fill="#E8E8E8"/>
</svg>
