<svg width="26" height="19" viewBox="0 0 26 19" fill="none" xmlns="http://www.w3.org/2000/svg">
    <path fill-rule="evenodd" clip-rule="evenodd" d="M1.469 0.751709H24.3504C24.818 0.751709 25.2022 1.12979 25.2022 1.59535V17.6278C25.2022 18.0933 24.818 18.4714 24.3504 18.4714H1.469C1.00141 18.4714 0.617188 18.0933 0.617188 17.6278V1.59535C0.617188 1.12979 1.0014 0.751709 1.469 0.751709ZM6.38282 5.08782C7.63403 5.08782 8.65015 6.09178 8.65015 7.33098C8.65015 8.57019 7.63398 9.57656 6.38282 9.57656C5.13166 9.57656 4.11793 8.57014 4.11793 7.33098C4.11793 6.09183 5.13162 5.08782 6.38282 5.08782ZM2.58867 2.702H23.2307V14.0881C19.1155 13.3772 16.9514 7.64916 14.3681 7.64916C11.6154 7.64916 7.96291 14.0881 5.9935 14.0881C4.3202 14.0881 4.16077 12.3832 2.58849 11.6122L2.58867 2.702Z" fill="#354F65"/>
</svg>
