<svg width="16" height="12" viewBox="0 0 16 12" fill="none" xmlns="http://www.w3.org/2000/svg">
    <path fill-rule="evenodd" clip-rule="evenodd" d="M0.904077 0.474854H14.9849C15.2727 0.474854 15.5091 0.713639 15.5091 1.00768V11.1334C15.5091 11.4275 15.2727 11.6663 14.9849 11.6663H0.904077C0.616327 11.6663 0.379883 11.4275 0.379883 11.1334V1.00768C0.379883 0.713639 0.616319 0.474854 0.904077 0.474854ZM3.92797 3.21345C4.69794 3.21345 5.32324 3.84753 5.32324 4.63019C5.32324 5.41284 4.69791 6.04844 3.92797 6.04844C3.15802 6.04844 2.53419 5.41281 2.53419 4.63019C2.53419 3.84756 3.15799 3.21345 3.92797 3.21345ZM1.5931 1.70662H14.2959V8.89786C11.7634 8.44887 10.4317 4.83114 8.84199 4.83114C7.14799 4.83114 4.90033 8.89786 3.68838 8.89786C2.65866 8.89786 2.56055 7.82105 1.59299 7.33411L1.5931 1.70662Z" fill="white"/>
</svg>
