<svg width="20" height="16" viewBox="0 0 20 16" fill="none" xmlns="http://www.w3.org/2000/svg">
    <g clip-path="url(#clip0_205_196)">
        <path d="M4.04302 1.93153C2.9041 1.93153 1.98335 2.82545 1.98335 3.93119V9.17227C1.98276 9.18004 1.98276 9.18783 1.98335 9.19559V12.5361V12.5419C1.98354 12.6091 1.98854 12.6805 1.99536 12.746C1.99555 12.7478 1.99517 12.7499 1.99536 12.7517C2.00238 12.8171 2.01208 12.8808 2.02539 12.9441C2.03928 13.0112 2.05281 13.0721 2.07343 13.1365C2.09346 13.1993 2.11945 13.2573 2.14548 13.3172C2.14625 13.3191 2.14472 13.3215 2.14548 13.323C2.17096 13.3813 2.19874 13.4368 2.22955 13.4921C2.26194 13.5504 2.29964 13.6065 2.33764 13.6612C2.37463 13.7145 2.40978 13.7632 2.45173 13.8127C2.73097 14.1429 3.12095 14.3804 3.56263 14.4832C3.85904 15.234 4.60562 15.7658 5.48419 15.7658H17.1216C18.2606 15.7658 19.1813 14.8718 19.1813 13.7661V5.15533C19.1813 4.2128 18.5109 3.42624 17.608 3.21398C17.3109 2.46468 16.5579 1.9314 15.6805 1.9314H4.04302V1.93153ZM4.04302 2.25218H15.6805C16.6441 2.25218 17.4159 2.99567 17.4159 3.93119V8.56596L15.5303 6.73537C15.0983 6.3159 14.5337 6.10574 13.9691 6.10574C13.4045 6.10574 12.8344 6.31532 12.4018 6.73537L9.02106 10.0234L6.6011 7.67982C6.16968 7.26091 5.60572 7.04436 5.03983 7.04436C4.47395 7.04436 3.90998 7.26091 3.47857 7.67982L2.31362 8.81082V3.93119C2.31362 2.99567 3.07942 2.25218 4.04302 2.25218ZM17.62 3.26075C17.6357 3.30347 17.6493 3.34499 17.6621 3.38901C17.6797 3.44994 17.6924 3.51241 17.7041 3.57557C18.376 3.80507 18.851 4.41912 18.851 5.15547V13.7662C18.851 14.7018 18.0852 15.4511 17.1216 15.4511H5.48419C4.8057 15.4511 4.22502 15.0822 3.94094 14.5358C3.8753 14.5326 3.81262 14.5272 3.74878 14.5183C3.81168 14.527 3.87567 14.5326 3.94094 14.5358C3.97551 14.5377 4.00801 14.5416 4.04302 14.5416H13.2965H15.6745C16.1727 14.5416 16.6323 14.3732 16.9895 14.0868C17.2452 13.8821 17.4479 13.6185 17.578 13.3173C17.6042 13.2573 17.6299 13.1993 17.6501 13.1366C17.6707 13.0721 17.6842 13.0113 17.6981 12.9442C17.7115 12.8808 17.7211 12.8171 17.7281 12.7518C17.7283 12.7499 17.7279 12.7477 17.7281 12.746C17.7352 12.6787 17.7401 12.6052 17.7401 12.5361V8.94492C17.7403 8.94106 17.7403 8.9372 17.7401 8.93335V3.93129C17.7401 3.80919 17.7256 3.69168 17.7041 3.57567C17.6925 3.51309 17.6774 3.44935 17.6621 3.38911C17.6507 3.34472 17.6352 3.30399 17.62 3.26085V3.26075ZM8.97903 4.01864C8.06973 4.01864 7.32769 4.73895 7.32769 5.62186C7.32769 6.50478 8.06973 7.22509 8.97903 7.22509C9.88831 7.22509 10.6304 6.50478 10.6304 5.62186C10.6304 4.73895 9.88831 4.01864 8.97903 4.01864Z" fill="white"/>
        <g clip-path="url(#clip1_205_196)">
            <path d="M15.3063 11.2852L16.1538 10.539C16.7721 9.99483 16.7721 9.10918 16.1538 8.565C15.5356 8.02065 14.5296 8.02065 13.9114 8.565L12.6883 9.64176C12.07 10.1859 12.07 11.0716 12.6883 11.6158C12.7796 11.6962 12.8795 11.7644 12.9852 11.821L13.64 11.2445C13.5153 11.2182 13.397 11.1628 13.2999 11.0774C13.0189 10.83 13.0189 10.4274 13.2999 10.1801L14.523 9.10335C14.804 8.85596 15.2613 8.85596 15.5423 9.10335C15.8233 9.35074 15.8233 9.75327 15.5423 10.0007L15.1829 10.317C15.331 10.6238 15.3719 10.9613 15.3063 11.2852Z" fill="white"/>
            <path d="M11.9099 10.327L11.0624 11.0732C10.444 11.6174 10.444 12.503 11.0624 13.0473C11.6805 13.5915 12.6865 13.5915 13.3047 13.0473L14.5278 11.9705C15.1461 11.4263 15.146 10.5407 14.5278 9.9965C14.4366 9.91607 14.3367 9.8479 14.2309 9.79126L13.5761 10.3678C13.7008 10.3941 13.8191 10.4494 13.9163 10.5348C14.1973 10.7822 14.1973 11.1848 13.9163 11.4322L12.6931 12.5089C12.4121 12.7563 11.9549 12.7563 11.6738 12.5089C11.3928 12.2615 11.3928 11.859 11.6738 11.6116L12.0332 11.2953C11.8851 10.9885 11.8442 10.651 11.9099 10.327Z" fill="white"/>
        </g>
    </g>
    <defs>
        <clipPath id="clip0_205_196">
            <rect width="18.5768" height="15.1111" fill="white" transform="translate(0.604492 0.666748)"/>
        </clipPath>
        <clipPath id="clip1_205_196">
            <rect width="6.68763" height="6.47619" fill="white" transform="translate(10.2644 7.86255)"/>
        </clipPath>
    </defs>
</svg>
