<svg width="28" height="23" viewBox="0 0 28 23" fill="none" xmlns="http://www.w3.org/2000/svg">
    <path d="M5.18276 1.92501C3.46611 1.92501 2.0783 3.28561 2.0783 4.96861V12.9458C2.07741 12.9577 2.07741 12.9695 2.0783 12.9813V18.0658V18.0747C2.07859 18.1768 2.08612 18.2856 2.0964 18.3852C2.09669 18.388 2.09612 18.3912 2.0964 18.394C2.10698 18.4935 2.1216 18.5904 2.14166 18.6868C2.1626 18.7889 2.183 18.8816 2.21407 18.9797C2.24427 19.0752 2.28344 19.1634 2.32268 19.2547C2.32384 19.2576 2.32152 19.2613 2.32268 19.2635C2.36107 19.3522 2.40295 19.4367 2.44939 19.5209C2.49821 19.6096 2.55503 19.695 2.61231 19.7782C2.66805 19.8594 2.72104 19.9335 2.78427 20.0089C3.20516 20.5115 3.79296 20.8729 4.45869 21.0294C4.90545 22.1721 6.03075 22.9815 7.35498 22.9815H24.8956C26.6123 22.9815 28.0001 21.6209 28.0001 19.9379V6.83183C28.0001 5.39723 26.9896 4.20004 25.6287 3.87697C25.1809 2.73649 24.046 1.9248 22.7234 1.9248H5.18276V1.92501ZM5.18276 2.41305H22.7234C24.1758 2.41305 25.3391 3.54468 25.3391 4.96861V12.023L22.4971 9.23674C21.846 8.59828 20.995 8.27841 20.1439 8.27841C19.2929 8.27841 18.4337 8.59739 17.7816 9.23674L12.686 14.2414L9.03845 10.6742C8.38819 10.0366 7.53815 9.70703 6.68521 9.70703C5.83227 9.70703 4.98224 10.0366 4.33198 10.6742L2.5761 12.3957V4.96861C2.5761 3.54468 3.73036 2.41305 5.18276 2.41305ZM25.6469 3.94816C25.6705 4.01319 25.691 4.07638 25.7102 4.14338C25.7368 4.23612 25.7559 4.3312 25.7736 4.42733C26.7863 4.77665 27.5023 5.71127 27.5023 6.83203V19.9381C27.5023 21.3621 26.348 22.5026 24.8956 22.5026H7.35498C6.33232 22.5026 5.45707 21.9411 5.0289 21.1094C4.92997 21.1046 4.83549 21.0964 4.73927 21.0827C4.83407 21.0961 4.93052 21.1046 5.0289 21.1094C5.08101 21.1123 5.12998 21.1182 5.18276 21.1182H19.1302H22.7144C23.4653 21.1182 24.1581 20.8619 24.6965 20.4261C25.0818 20.1145 25.3875 19.7132 25.5835 19.2548C25.6229 19.1635 25.6617 19.0753 25.6921 18.9798C25.7232 18.8817 25.7436 18.789 25.7645 18.6869C25.7847 18.5905 25.7991 18.4935 25.8098 18.3941C25.8101 18.3913 25.8095 18.3878 25.8098 18.3853C25.8204 18.2828 25.8279 18.171 25.8279 18.0658V12.5998C25.8281 12.5939 25.8281 12.5881 25.8279 12.5822V4.96876C25.8279 4.78292 25.806 4.60407 25.7736 4.42748C25.7561 4.33223 25.7334 4.23521 25.7102 4.14353C25.6931 4.07596 25.6697 4.01397 25.6469 3.94832V3.94816ZM12.6226 5.10171C11.2521 5.10171 10.1336 6.19807 10.1336 7.54191C10.1336 8.88576 11.2521 9.98211 12.6226 9.98211C13.9931 9.98211 15.1116 8.88576 15.1116 7.54191C15.1116 6.19807 13.9931 5.10171 12.6226 5.10171Z" fill="#1F3B54" fill-opacity="0.9"/>
</svg>
