<?xml version="1.0" encoding="UTF-8"?>
<svg width="24px" height="24px" viewBox="0 0 24 24" version="1.1" xmlns="http://www.w3.org/2000/svg" xmlns:xlink="http://www.w3.org/1999/xlink">
    <title>7D4BAE06-4ED1-45C3-A512-B4D100436B1F</title>
    <g id="V2" stroke="none" stroke-width="1" fill="none" fill-rule="evenodd">
        <g id="_VIDEO/-FIRST-SCREEN-/-CREATE" transform="translate(-53.000000, -460.000000)">
            <g id="SidebarVideo/Record" transform="translate(20.000000, 120.000000)">
                <g id="Group-3-Copy" transform="translate(0.000000, 330.000000)">
                    <g id="Group-8" transform="translate(33.000000, 10.000000)">
                        <polygon id="Path" points="0 0 24 0 24 24 0 24"></polygon>
                        <path d="M21,3 L3,3 C1.9,3 1,3.9 1,5 L1,19 C1,20.1 1.9,21 3,21 L21,21 C22.1,21 23,20.1 23,19 L23,5 C23,3.9 22.1,3 21,3 Z M20,5 C20.55,5 21,5.45 21,6 L21,18 C21,18.55 20.55,19 20,19 L4,19 C3.45,19 3,18.55 3,18 L3,6 C3,5.45 3.45,5 4,5 L20,5 Z M14.8533333,11 L10.8533333,16.270428 L8,12.7431907 L4,18 L20,18 L14.8533333,11 Z" id="🔹Icon-Color" fill="#1D1D1D"></path>
                    </g>
                </g>
            </g>
        </g>
    </g>
</svg>