<svg xmlns:dc="http://purl.org/dc/elements/1.1/" xmlns:cc="http://creativecommons.org/ns#" xmlns:rdf="http://www.w3.org/1999/02/22-rdf-syntax-ns#" xmlns:svg="http://www.w3.org/2000/svg" xmlns="http://www.w3.org/2000/svg" xmlns:sodipodi="http://sodipodi.sourceforge.net/DTD/sodipodi-0.dtd" xmlns:inkscape="http://www.inkscape.org/namespaces/inkscape" fill="#5a7184" version="1.1" width="16" height="16" x="0px" y="0px" viewBox="0 0 100 100"><path style="font-size:medium;font-style:normal;font-variant:normal;font-weight:normal;font-stretch:normal;text-indent:0;text-align:start;text-decoration:none;line-height:normal;letter-spacing:normal;word-spacing:normal;text-transform:none;direction:ltr;block-progression:tb;writing-mode:lr-tb;text-anchor:start;baseline-shift:baseline;opacity:1;color:#000000;fill:#000000;fill-opacity:1;stroke:none;stroke-width:6;marker:none;visibility:visible;display:inline;overflow:visible;enable-background:accumulate;font-family:Sans;-inkscape-font-specification:Sans" d="M 20.6875 5 A 3.0003 3.0003 0 0 0 18 8 L 18 92 A 3.0003 3.0003 0 0 0 21 95 L 79 95 A 3.0003 3.0003 0 0 0 82 92 L 82 20 A 3.0003 3.0003 0 0 0 81.125 17.875 L 69.125 5.875 A 3.0003 3.0003 0 0 0 67 5 L 21 5 A 3.0003 3.0003 0 0 0 20.6875 5 z M 24 11 L 62 11 L 62 22 A 3.0003 3.0003 0 0 0 65 25 L 76 25 L 76 89 L 24 89 L 24 11 z M 68 13.25 L 73.75 19 L 68 19 L 68 13.25 z M 39 38 C 37.679369 38 36.122835 38.361423 34.875 39.5 C 33.627165 40.638577 33 42.417009 33 44.1875 L 33 51.46875 C 33 52.205754 32.98908 52.040801 32.65625 52.28125 C 32.323422 52.521699 31.469747 52.859909 30.4375 53.0625 A 3.0003 3.0003 0 0 0 30.4375 58.9375 C 31.469747 59.140091 32.323422 59.478302 32.65625 59.71875 C 32.989078 59.959198 33 59.794246 33 60.53125 L 33 67.8125 C 33 69.582991 33.627165 71.361423 34.875 72.5 C 36.122835 73.638577 37.679369 74 39 74 A 3.0003 3.0003 0 1 0 39 68 C 38.994865 67.93854 39 67.945163 39 67.8125 L 39 60.53125 C 39 58.718282 38.159771 57.203852 37.125 56 C 38.159771 54.796148 39 53.281718 39 51.46875 L 39 44.1875 C 39 44.054837 38.994866 44.06146 39 44 A 3.0003 3.0003 0 1 0 39 38 z M 60.6875 38 A 3.0040663 3.0040663 0 1 0 61 44 C 61.005135 44.06146 61 44.054837 61 44.1875 L 61 51.46875 C 61 53.281718 61.840229 54.796148 62.875 56 C 61.840229 57.203852 61 58.718282 61 60.53125 L 61 67.8125 C 61 67.945163 61.005134 67.93854 61 68 A 3.0003 3.0003 0 1 0 61 74 C 62.320631 74 63.877165 73.638577 65.125 72.5 C 66.372835 71.361423 67 69.582991 67 67.8125 L 67 60.53125 C 67 59.794246 67.01092 59.959198 67.34375 59.71875 C 67.676578 59.478302 68.530253 59.140091 69.5625 58.9375 A 3.0003 3.0003 0 0 0 69.5625 53.0625 C 68.530253 52.859909 67.676578 52.521699 67.34375 52.28125 C 67.010922 52.040801 67 52.205754 67 51.46875 L 67 44.1875 C 67 42.417009 66.372835 40.638577 65.125 39.5 C 63.877165 38.361423 62.320631 38 61 38 A 3.0003 3.0003 0 0 0 60.6875 38 z "/></svg>