<svg xmlns="http://www.w3.org/2000/svg" xmlns:xlink="http://www.w3.org/1999/xlink" width="36" height="36" fill="#fff" version="1.1" x="0px" y="0px" viewBox="0 0 100 100" enable-background="new 0 0 100 100" xml:space="preserve"><polygon points="19,29 83,29 83,68 91,68 91,22 19,22 "/><path d="M8,31v47h73V31H8z M36.364,67h-17l12.303-19.5l8.42,13.346L43.652,67H36.364z M46.506,67c-1.31-2.089-3.984-6.348-4.89-7.74  l4.134-6.092L55.137,67H46.506z M69.5,46.625c-2.278,0-4.125-1.847-4.125-4.125s1.847-4.125,4.125-4.125s4.125,1.847,4.125,4.125  S71.778,46.625,69.5,46.625z"/></svg>