<svg xmlns="http://www.w3.org/2000/svg" xmlns:xlink="http://www.w3.org/1999/xlink" version="1.1" x="0px" y="0px" viewBox="0 0 70 70" fill="#fff" style="enable-background:new 0 0 70 70;" xml:space="preserve"><g><path d="M56.3616447,11.7846889l-3.6100502-0.0168858V5.7914624C52.7515945,4.2520752,51.6789627,3,50.3603516,3h-1.462265   v9.3860283c0,2.4532404-1.9960632,4.4493027-4.4493027,4.4493027c-2.4532433,0-4.4493027-1.9960623-4.4493027-4.4493027v-1.4521856   c0-1.2208242-0.9929924-2.2138147-2.2138138-2.2138147c-1.2208252,0-2.2138176,0.9929905-2.2138176,2.2138147v1.4098444   c0,2.4769316-2.0147095,4.4916439-4.491642,4.4916439h-0.4274387c-2.241539,0-4.0647087-1.8231707-4.0647087-4.0647078   c0-1.2913923-1.0504532-2.3418446-2.3418446-2.3418446s-2.3418446,1.0504522-2.3418446,2.3418446v9.8658895h28.4559803   c1.3186111,0,2.391243-1.2520752,2.391243-2.7909584v-6.0131369l3.6100502,0.0168858   c2.1135063,0,3.8333473,1.7198391,3.8333473,3.8333464v12.9451675c0,2.1135082-1.719841,3.8333454-3.8333473,3.8333454H36.6717033   c-3.2521706,0-5.8979607,2.6457901-5.8979607,5.8979607l0.022871,5.5374336   c-1.7356548,0.4454613-3.0315819,1.9919662-3.0774517,3.8556519h8.1737747   c-0.0454292-1.8469238-1.3195572-3.3803253-3.0316467-3.8415375l-0.022934-5.551548   c0-2.1135063,1.7198372-3.8333473,3.8333473-3.8333473h19.6899414c3.2521706,0,5.8979607-2.6457901,5.8979607-5.8979588V17.6826496   C62.2596054,14.43048,59.6138153,11.7846889,56.3616447,11.7846889z"/><path d="M7.7403955,44.4117355c0,1.3836327,1.094306,2.5096931,2.4396315,2.5096931s2.4396315-1.1260605,2.4396315-2.5096931   c0-0.9148636-1.2394743-3.3983459-2.4396315-5.475563C8.9798689,41.0138931,7.7403955,43.4978828,7.7403955,44.4117355z"/><path d="M27.7090816,64.9580688C27.7090816,66.0841293,28.6249504,67,29.7510128,67h4.1100712   c1.1260643,0,2.0419312-0.9158707,2.0419312-2.0419312V51.8168221h-8.1939335V64.9580688z"/><path d="M19.6925735,37.3645287c0,1.3836327,1.094305,2.5096931,2.4396305,2.5096931s2.440136-1.1260605,2.440136-2.5096931   c0-0.9138565-1.2394733-3.3973389-2.440136-5.4750595C20.9320469,33.9671898,19.6925735,36.4506721,19.6925735,37.3645287z"/><path d="M19.8397579,23.6862717c-0.0001259-0.0061741-0.0035286-0.0112782-0.0035286-0.0174522   s0.0034027-0.0112782,0.0035286-0.0174522v-10.880744c0-2.4295502,1.9769077-4.4064589,4.4064579-4.4064589   s4.4064579,1.9769087,4.4064579,4.4064589c0,1.1028748,0.8972206,2.0000944,2.0000954,2.0000944h0.4274387   c1.3382683,0,2.4270287-1.0887613,2.4270287-2.4270306v-1.4098444c0-2.3589821,1.9194489-4.2784281,4.2784309-4.2784281   s4.2784271,1.919446,4.2784271,4.2784281v1.4521856c0,1.3150826,1.0696068,2.3846893,2.3846893,2.3846893   s2.3846893-1.0696068,2.3846893-2.3846893V3H14.1308184v21.1668262c0,1.5741673,1.280302,2.8544693,2.8544703,2.8544693   s2.8544693-1.280302,2.8544693-2.8544693V23.6862717z"/><path d="M11.5399704,22.6365128h0.5262346V3h-0.5262346c-1.3186111,0-2.391242,1.2520752-2.391242,2.7914624v14.0540924   C9.1487284,21.3844376,10.2213593,22.6365128,11.5399704,22.6365128z"/></g></svg>