<svg xmlns="http://www.w3.org/2000/svg" data-name="Layer 1" fill="#ffffff" viewBox="0 0 24 24" x="0px" y="0px"><title>rounded</title><path d="M19.41418,7.41418,16.58582,4.58575A2.00016,2.00016,0,0,0,15.17157,4H6A2,2,0,0,0,4,6V18a2,2,0,0,0,2,2H18a2,2,0,0,0,2-2V8.82843A1.99982,1.99982,0,0,0,19.41418,7.41418ZM12.25,6a.75.75,0,0,1,1.5,0V7a.75.75,0,0,1-1.5,0ZM8,5.5a.5.5,0,0,1,1,0V9h6V5.5a.5.5,0,0,1,1,0v4a.49971.49971,0,0,1-.5.5h-7A.49971.49971,0,0,1,8,9.5ZM17,18a1,1,0,0,1-1,1H8a1,1,0,0,1-1-1V13a1,1,0,0,1,1-1h8a1,1,0,0,1,1,1Z"/></svg>