<svg width="50" height="54" viewBox="0 0 50 54" fill="none" xmlns="http://www.w3.org/2000/svg">
<path d="M23.3552 35.3364C24.6299 35.3364 25.6631 36.6111 25.6631 37.6443V50.9816C25.6631 52.2563 24.63 53.2895 23.3552 53.2895C22.0805 53.2895 21.0474 52.0148 21.0474 50.9816V37.6443C21.0474 36.3696 22.0805 35.3364 23.3552 35.3364Z" fill="#FF5C00"/>
<path d="M23.3552 0C24.6299 0 25.6631 1.27467 25.6631 2.30784V15.6452C25.6631 16.9199 24.63 17.9531 23.3552 17.9531C22.0805 17.9531 21.0474 16.6784 21.0474 15.6452V2.30784C21.0474 1.03317 22.0805 0 23.3552 0V0Z" fill="#FF5C00"/>
<path d="M49.9999 26.6443C49.9999 27.9189 48.7253 28.9521 47.6921 28.9521H34.3547C33.0801 28.9521 32.0469 27.919 32.0469 26.6443C32.0469 25.3695 33.3215 24.3364 34.3547 24.3364H47.6921C48.9668 24.3364 49.9999 25.3695 49.9999 26.6443V26.6443Z" fill="#FF5C00"/>
<path d="M36.6521 3.56745C37.76 4.20707 38.0188 5.83398 37.5003 6.73208L30.8402 18.2679C30.2005 19.3758 28.7834 19.7557 27.6755 19.1161C26.5676 18.4765 26.3088 16.8495 26.8274 15.9514L33.4875 4.4156C34.1271 3.3077 35.5442 2.92787 36.6521 3.56745Z" fill="#FF5C00"/>
<path d="M46.433 13.3488C47.0726 14.4567 46.4833 15.9948 45.5848 16.5134L34.049 23.1735C32.9411 23.8132 31.524 23.4337 30.8843 22.3254C30.2447 21.2175 30.834 19.6794 31.7325 19.1608L43.2683 12.5007C44.3762 11.8611 45.7933 12.2405 46.433 13.3488V13.3488Z" fill="#FF5C00"/>
<path d="M10.0496 49.7318C8.94166 49.0922 8.68286 47.4653 9.20141 46.5672L15.8615 35.0313C16.5011 33.9234 17.9182 33.5436 19.0261 34.1832C20.134 34.8228 20.3928 36.4497 19.8743 37.3478L13.2142 48.8836C12.5746 49.9915 11.1575 50.3714 10.0496 49.7318Z" fill="#FF5C00"/>
<path d="M0.268858 39.9509C-0.370762 38.843 0.218541 37.3049 1.117 36.7863L12.6529 30.1262C13.7607 29.4865 15.1778 29.866 15.8175 30.9743C16.4571 32.0822 15.8678 33.6203 14.9693 34.1389L3.43348 40.799C2.32559 41.4387 0.908514 41.0592 0.268858 39.9509Z" fill="#FF5C00"/>
<path d="M27.6757 34.1839C28.7836 33.5443 30.3217 34.1336 30.8403 35.032L37.5004 46.5679C38.1401 47.6758 37.7606 49.0929 36.6523 49.7325C35.5444 50.3721 34.0063 49.7828 33.4877 48.8844L26.8276 37.3485C26.188 36.2406 26.5674 34.8236 27.6757 34.1839Z" fill="#FF5C00"/>
<path d="M30.8846 30.9731C31.5242 29.8652 33.1511 29.6064 34.0492 30.125L45.5851 36.7851C46.693 37.4247 47.0728 38.8418 46.4332 39.9497C45.7936 41.0576 44.1667 41.3164 43.2686 40.7979L31.7327 34.1378C30.6248 33.4981 30.245 32.081 30.8846 30.9731Z" fill="#FF5C00"/>
</svg>
