<svg width="49" height="42" viewBox="0 0 49 42" fill="none" xmlns="http://www.w3.org/2000/svg">
<path d="M13.5429 17.4609L19.5853 16.3114V28.6473C19.5853 29.3104 20.2326 29.8412 21.0421 29.8412H27.0307C27.8398 29.8412 28.4874 29.3107 28.4874 28.6473V16.3114L34.5299 17.4609C36.3103 17.8147 37.659 16.2229 36.6877 14.9405L25.7896 0.791818C25.5739 0.482165 25.2499 0.261336 24.8725 0.128724C23.9015 -0.180929 22.8764 0.0846205 22.3905 0.747714L11.4384 14.8964C10.3599 16.2229 11.7625 17.8147 13.5429 17.4609L13.5429 17.4609Z" fill="#FFFFFF"/>
<path d="M46.6145 26.0383H40.6797C39.8705 26.0383 39.2229 26.5688 39.2229 27.2322V34.7486H8.84837V27.2322C8.84837 26.5691 8.20108 26.0383 7.3916 26.0383H1.45678C0.647665 26.0383 0 26.5688 0 27.2322V40.8061C0 41.4692 0.647299 42 1.45678 42H46.6678C47.477 42 48.1246 41.4695 48.1246 40.8061L48.125 27.2314C48.0712 26.5683 47.4235 26.0379 46.6144 26.0379L46.6145 26.0383Z" fill="#FFFFFF"/>
</svg>
