<svg width="18" height="19" viewBox="0 0 18 19" fill="none" xmlns="http://www.w3.org/2000/svg">
<path d="M5.49258 7.78366L7.59099 7.29233V12.5651C7.59099 12.8485 7.81578 13.0754 8.09689 13.0754H10.1766C10.4576 13.0754 10.6825 12.8486 10.6825 12.5651V7.29233L12.7809 7.78366C13.3992 7.93487 13.8676 7.25449 13.5303 6.70636L9.7456 0.65876C9.67071 0.526405 9.55818 0.432016 9.4271 0.375333C9.08992 0.242978 8.7339 0.356482 8.56518 0.639909L4.76175 6.68751C4.3872 7.25451 4.87428 7.93486 5.4926 7.78364L5.49258 7.78366Z" fill="#4C4A60" fill-opacity="0.7"/>
<path d="M16.9778 11.45H14.9167C14.6357 11.45 14.4108 11.6768 14.4108 11.9603V15.1731H3.8624V11.9603C3.8624 11.6769 3.63761 11.45 3.35649 11.45H1.29546C1.01447 11.45 0.789551 11.6768 0.789551 11.9603V17.7623C0.789551 18.0457 1.01434 18.2726 1.29546 18.2726H16.9963C17.2773 18.2726 17.5022 18.0458 17.5022 17.7623L17.5023 11.96C17.4836 11.6766 17.2587 11.4498 16.9777 11.4498L16.9778 11.45Z" fill="#4C4A60" fill-opacity="0.7"/>
</svg>
