<svg width="19" height="19" viewBox="0 0 19 19" fill="none" xmlns="http://www.w3.org/2000/svg">
    <g clip-path="url(#clip0_257_10)">
        <path d="M5.49258 7.78366L7.59099 7.29233V12.5651C7.59099 12.8485 7.81578 13.0754 8.09689 13.0754H10.1766C10.4576 13.0754 10.6825 12.8486 10.6825 12.5651V7.29233L12.7809 7.78366C13.3992 7.93487 13.8676 7.25449 13.5303 6.70636L9.7456 0.65876C9.67071 0.526405 9.55818 0.432016 9.4271 0.375333C9.08992 0.242978 8.7339 0.356482 8.56518 0.639909L4.76175 6.68751C4.3872 7.25451 4.87428 7.93486 5.4926 7.78364L5.49258 7.78366Z" fill="url(#paint0_linear_257_10)"/>
        <path d="M16.9778 11.4499H14.9167C14.6357 11.4499 14.4108 11.6767 14.4108 11.9602V15.173H3.8624V11.9602C3.8624 11.6768 3.63761 11.4499 3.35649 11.4499H1.29546C1.01447 11.4499 0.789551 11.6767 0.789551 11.9602V17.7621C0.789551 18.0456 1.01434 18.2724 1.29546 18.2724H16.9963C17.2773 18.2724 17.5022 18.0457 17.5022 17.7621L17.5023 11.9599C17.4836 11.6764 17.2587 11.4497 16.9777 11.4497L16.9778 11.4499Z" fill="url(#paint1_linear_257_10)"/>
    </g>
    <defs>
        <linearGradient id="paint0_linear_257_10" x1="9.137" y1="0.320312" x2="9.137" y2="13.0754" gradientUnits="userSpaceOnUse">
            <stop stop-color="#0BB3FF"/>
            <stop offset="1" stop-color="#535BFF"/>
        </linearGradient>
        <linearGradient id="paint1_linear_257_10" x1="9.14594" y1="11.4497" x2="9.14594" y2="18.2724" gradientUnits="userSpaceOnUse">
            <stop stop-color="#0BB3FF"/>
            <stop offset="1" stop-color="#535BFF"/>
        </linearGradient>
        <clipPath id="clip0_257_10">
            <rect width="18" height="19" fill="white" transform="translate(0.194336)"/>
        </clipPath>
    </defs>
</svg>
