<svg width="9" height="3" viewBox="0 0 9 3" fill="none" xmlns="http://www.w3.org/2000/svg">
<path d="M5.66474 1.16469C5.66474 1.80788 5.14333 2.32929 4.50014 2.32929C3.85686 2.32929 3.33545 1.80788 3.33545 1.16469C3.33545 0.521406 3.85686 0 4.50014 0C5.14333 0 5.66474 0.521406 5.66474 1.16469Z" fill="#E8E8E8"/>
<path d="M2.32938 1.16469C2.32938 1.80788 1.80788 2.32929 1.16469 2.32929C0.521406 2.32929 0 1.80788 0 1.16469C0 0.521406 0.521406 0 1.16469 0C1.80788 0 2.32938 0.521406 2.32938 1.16469Z" fill="#E8E8E8"/>
<path d="M9.00022 1.16469C9.00022 1.80788 8.47881 2.32929 7.83553 2.32929C7.19234 2.32929 6.67093 1.80788 6.67093 1.16469C6.67093 0.521406 7.19234 0 7.83553 0C8.47881 0 9.00022 0.521406 9.00022 1.16469Z" fill="#E8E8E8"/>
</svg>
