<svg xmlns="http://www.w3.org/2000/svg" xmlns:xlink="http://www.w3.org/1999/xlink" viewBox="0 0 24 24" fill="#000" width="24px" height="24px">
        <path fill="#000000" d="M35.174,54.7c7.065,0,12.813-5.749,12.813-12.813c0-7.065-5.748-12.813-12.813-12.813   c-7.065,0-12.813,5.748-12.813,12.813C22.361,48.952,28.109,54.7,35.174,54.7z" />
        <path fill="#000000" d="M35.174,56.313c-11.681,0-21.184,9.503-21.184,21.184c0,0.553,0.448,1,1,1h40.367   c0.007,0.001,0.015,0.001,0.02,0c0.553,0,1-0.447,1-1c0-0.07-0.007-0.139-0.021-0.205C56.246,65.706,46.786,56.313,35.174,56.313z" />
        <path fill="#000000" d="M64.803,47.129c7.065,0,12.813-5.748,12.813-12.813c0-7.065-5.748-12.813-12.813-12.813   S51.989,27.25,51.989,34.316C51.989,41.381,57.737,47.129,64.803,47.129z" />
        <path fill="#000000" d="M85.989,69.72c-0.11-11.584-9.572-20.976-21.187-20.976c-5.695,0-11.041,2.229-15.053,6.276   c-0.208,0.21-0.313,0.501-0.286,0.795c0.027,0.294,0.183,0.562,0.425,0.73c4.811,3.346,8.517,8.215,10.436,13.709   c0.141,0.401,0.52,0.67,0.944,0.67H84.99c0.007,0,0.015,0,0.02,0c0.553,0,1-0.447,1-1C86.01,69.854,86.003,69.786,85.989,69.72z" />
</svg>