<?xml version="1.0" encoding="utf-8"?>
<!-- Generator: Adobe Illustrator 25.0.0, SVG Export Plug-In . SVG Version: 6.00 Build 0)  -->
<svg version="1.1" id="Calque_1" xmlns="http://www.w3.org/2000/svg" xmlns:xlink="http://www.w3.org/1999/xlink" x="0px" y="0px"
	 viewBox="0 0 25 31.2" style="enable-background:new 0 0 25 31.2;" xml:space="preserve">
<g>
	<path d="M10.3,8.2v6.2c0,0.8-0.7,1.5-1.5,1.5H5.7c-0.8,0-1.5-0.7-1.5-1.5V8.2c0-0.8,0.7-1.5,1.5-1.5h3.1C9.7,6.7,10.3,7.4,10.3,8.2
		z M8.8,17H5.7c-0.8,0-1.5,0.7-1.5,1.5v3.3c0,0.8,0.7,1.5,1.5,1.5h3.1c0.8,0,1.5-0.7,1.5-1.5v-3.3C10.3,17.7,9.7,17,8.8,17z
		 M19.3,13.3H13c-0.8,0-1.5,0.7-1.5,1.5v7c0,0.8,0.7,1.5,1.5,1.5h6.3c0.8,0,1.5-0.7,1.5-1.5v-7C20.8,14,20.1,13.3,19.3,13.3z
		 M19.3,6.7H13c-0.8,0-1.5,0.7-1.5,1.5v2.5c0,0.8,0.7,1.5,1.5,1.5h6.3c0.8,0,1.5-0.7,1.5-1.5V8.2C20.8,7.4,20.1,6.7,19.3,6.7z"/>
</g>
</svg>
