<?xml version="1.0" encoding="UTF-8"?>
<svg width="24px" height="24px" viewBox="0 0 24 24" version="1.1" xmlns="http://www.w3.org/2000/svg" xmlns:xlink="http://www.w3.org/1999/xlink">
    <title>343FD518-5FC7-4BD8-B9AA-DBE19340DF01</title>
    <g id="ALL" stroke="none" stroke-width="1" fill="none" fill-rule="evenodd">
        <g id="_VIDEO-EDIT-MENU-FERMÉ" transform="translate(-53.000000, -280.000000)">
            <g id="SidebarVideo/Closed" transform="translate(20.000000, 120.000000)">
                <g id="Outlined-/-Editor-/-insert_photo" transform="translate(33.000000, 160.000000)">
                    <polygon id="Path" points="0 0 24 0 24 24 0 24"></polygon>
                    <path d="M19,5 L19,19 L5,19 L5,5 L19,5 L19,5 Z M19,3 L5,3 C3.9,3 3,3.9 3,5 L3,19 C3,20.1 3.9,21 5,21 L19,21 C20.1,21 21,20.1 21,19 L21,5 C21,3.9 20.1,3 19,3 Z M14.14,11.86 L11.14,15.73 L9,13.14 L6,17 L18,17 L14.14,11.86 Z" id="🔹-Icon-Color" fill="#1D1D1D"></path>
                </g>
            </g>
        </g>
    </g>
</svg>