<svg width="26" height="25" viewBox="0 0 26 25" fill="none" xmlns="http://www.w3.org/2000/svg">
<path d="M12.6235 0C9.27553 0 6.06467 1.31706 3.6973 3.66113C1.33002 6.00524 0 9.18464 0 12.5C0 15.8154 1.33007 18.9947 3.6973 21.3389C6.06457 23.683 9.27539 25 12.6235 25C15.9716 25 19.1823 23.6829 21.5497 21.3389C23.917 18.9948 25.247 15.8154 25.247 12.5C25.2432 9.18589 23.912 6.0087 21.5455 3.66545C19.179 1.3221 15.9704 0.00394226 12.6237 0.000192292L12.6235 0ZM12.6235 23.0767C9.79062 23.0767 7.07406 21.9623 5.07082 19.9788C3.06758 17.9952 1.94226 15.305 1.94226 12.5C1.94226 9.69497 3.06768 7.00485 5.07082 5.02121C7.07396 3.03757 9.79076 1.92325 12.6235 1.92325C15.4562 1.92325 18.1729 3.03767 20.1762 5.02121C22.1794 7.00475 23.3047 9.69497 23.3047 12.5C23.3013 15.3042 22.1749 17.9927 20.1726 19.9754C18.1702 21.9582 15.4553 23.0735 12.6233 23.0769L12.6235 23.0767Z" fill="#DCDCDC"/>
<path d="M12.6236 4.80762C11.3364 4.80912 10.1023 5.31617 9.19216 6.21741C8.28201 7.11866 7.76994 8.34067 7.76843 9.61527V10.5768H9.7105V9.61527C9.7105 8.85018 10.0174 8.11644 10.5637 7.57558C11.1099 7.03452 11.8509 6.73068 12.6236 6.73068C13.3962 6.73068 14.1372 7.03454 14.6834 7.57558C15.2298 8.11644 15.5367 8.85018 15.5367 9.61527C15.5367 10.3804 15.2298 11.1141 14.6834 11.655C14.1372 12.196 13.3962 12.4999 12.6236 12.4999C12.366 12.4999 12.1191 12.6011 11.937 12.7816C11.7548 12.9619 11.6525 13.2064 11.6525 13.4614V17.3075H13.5946V14.3268C15.182 14.0075 16.5041 12.9255 17.1195 11.4418C17.735 9.95803 17.5626 8.26819 16.66 6.93632C15.7574 5.60446 14.2435 4.80595 12.6236 4.80764L12.6236 4.80762Z" fill="#DCDCDC"/>
<path d="M13.5945 19.2306C13.5945 19.7617 13.1599 20.1921 12.6235 20.1921C12.0872 20.1921 11.6525 19.7617 11.6525 19.2306C11.6525 18.6995 12.0872 18.269 12.6235 18.269C13.1599 18.269 13.5945 18.6995 13.5945 19.2306Z" fill="#DCDCDC"/>
</svg>
