<svg xmlns="http://www.w3.org/2000/svg" width="25" height="21" viewBox="0 0 25 21" fill="none" >
    <g clip-path="url(#clip0_42_109)">
        <path d="M4.62739 1.75751C3.09466 1.75751 1.85555 2.9998 1.85555 4.53645V11.82C1.85476 11.8308 1.85476 11.8416 1.85555 11.8524V16.4948V16.5028C1.85581 16.5961 1.86253 16.6954 1.87171 16.7864C1.87197 16.789 1.87146 16.7918 1.87171 16.7944C1.88115 16.8852 1.89421 16.9738 1.91212 17.0618C1.93082 17.155 1.94903 17.2396 1.97677 17.3291C2.00374 17.4164 2.03871 17.497 2.07374 17.5803C2.07478 17.5829 2.07271 17.5863 2.07374 17.5883C2.10802 17.6693 2.14541 17.7465 2.18688 17.8233C2.23047 17.9043 2.28121 17.9823 2.33234 18.0582C2.38212 18.1324 2.42943 18.2 2.48588 18.2689C2.86168 18.7278 3.38649 19.0578 3.9809 19.2006C4.37979 20.244 5.38452 20.983 6.56687 20.983H22.2282C23.7609 20.983 25 19.7407 25 18.2041V6.23765C25 4.9278 24.0978 3.83472 22.8827 3.53973C22.4828 2.49843 21.4696 1.75732 20.2887 1.75732H4.62739V1.75751ZM4.62739 2.20312H20.2887C21.5855 2.20312 22.6241 3.23634 22.6241 4.53645V10.9774L20.0867 8.43344C19.5052 7.8505 18.7454 7.55844 17.9856 7.55844C17.2258 7.55844 16.4586 7.84968 15.8764 8.43344L11.3267 13.0029L8.06997 9.74594C7.48938 9.16379 6.73042 8.86284 5.96886 8.86284C5.20731 8.86284 4.44835 9.16379 3.86776 9.74594L2.30002 11.3177V4.53645C2.30002 3.23634 3.33061 2.20312 4.62739 2.20312V2.20312ZM22.8989 3.60474C22.92 3.66411 22.9383 3.72181 22.9555 3.78298C22.9792 3.86765 22.9963 3.95447 23.012 4.04224C23.9162 4.36118 24.5555 5.21453 24.5555 6.23784V18.2043C24.5555 19.5044 23.5249 20.5457 22.2282 20.5457H6.56687C5.65378 20.5457 4.87231 20.0331 4.49001 19.2737C4.40168 19.2693 4.31732 19.2618 4.23141 19.2493C4.31606 19.2615 4.40218 19.2693 4.49001 19.2737C4.53654 19.2763 4.58027 19.2818 4.62739 19.2818H17.0805H20.2806C20.9511 19.2818 21.5696 19.0477 22.0504 18.6498C22.3944 18.3653 22.6673 17.9989 22.8423 17.5804C22.8776 17.497 22.9122 17.4165 22.9393 17.3292C22.967 17.2397 22.9852 17.1551 23.004 17.0618C23.022 16.9738 23.0349 16.8853 23.0444 16.7945C23.0446 16.7919 23.0441 16.7888 23.0444 16.7865C23.0539 16.6929 23.0605 16.5908 23.0605 16.4948V11.5041C23.0607 11.4987 23.0607 11.4933 23.0605 11.488V4.53659C23.0605 4.36691 23.041 4.20361 23.012 4.04238C22.9964 3.95541 22.9762 3.86683 22.9555 3.78312C22.9402 3.72142 22.9193 3.66483 22.8989 3.60488V3.60474ZM11.2701 4.65798C10.0464 4.65798 9.04779 5.659 9.04779 6.88599C9.04779 8.11298 10.0464 9.114 11.2701 9.114C12.4938 9.114 13.4924 8.11298 13.4924 6.88599C13.4924 5.659 12.4938 4.65798 11.2701 4.65798Z" fill="#5B5FEE"/>
        <g clip-path="url(#clip1_42_109)">
            <path d="M19.7855 14.7566L20.926 13.7196C21.7581 12.9633 21.7581 11.7325 20.926 10.9763C20.0941 10.2198 18.7403 10.2198 17.9083 10.9763L16.2623 12.4727C15.4303 13.2289 15.4303 14.4597 16.2623 15.216C16.3852 15.3277 16.5196 15.4225 16.6619 15.5012L17.5431 14.7C17.3753 14.6635 17.2161 14.5865 17.0854 14.4678C16.7072 14.124 16.7072 13.5645 17.0854 13.2208L18.7314 11.7244C19.1096 11.3806 19.725 11.3806 20.1031 11.7244C20.4813 12.0682 20.4813 12.6276 20.1031 12.9714L19.6195 13.4111C19.8188 13.8375 19.8738 14.3064 19.7855 14.7566Z" fill="white"/>
            <path d="M15.2146 13.425L14.0741 14.4619C13.2419 15.2183 13.2419 16.449 14.0741 17.2053C14.9059 17.9617 16.2598 17.9617 17.0918 17.2053L18.7377 15.7089C19.5697 14.9526 19.5696 13.7219 18.7377 12.9656C18.6149 12.8539 18.4805 12.7591 18.3382 12.6804L17.457 13.4816C17.6247 13.5182 17.7839 13.595 17.9147 13.7138C18.2929 14.0576 18.2929 14.617 17.9147 14.9608L16.2686 16.4571C15.8904 16.8009 15.2751 16.8009 14.8969 16.4571C14.5187 16.1133 14.5187 15.554 14.8969 15.2102L15.3806 14.7705C15.1812 14.3442 15.1262 13.8752 15.2146 13.425Z" fill="white"/>
        </g>
    </g>
    <defs>
        <clipPath id="clip0_42_109">
            <rect width="25" height="21" fill="white"/>
        </clipPath>
        <clipPath id="clip1_42_109">
            <rect width="9" height="9" fill="white" transform="translate(13 10)"/>
        </clipPath>
    </defs>
</svg>
    
    