<svg width="39" height="40" viewBox="0 0 39 40" fill="none" xmlns="http://www.w3.org/2000/svg">
<path d="M1.96231 15.709L37.0743 6.94938L35.5256 1.74579C35.1502 0.486075 33.726 -0.25973 32.35 0.0835612L1.90675 7.67922C0.530738 8.02222 -0.283915 9.3267 0.0914245 10.5864L1.64011 15.7903V37.5321C1.64011 38.6587 2.80013 39.576 4.22643 39.576H35.78C37.2063 39.576 38.3663 38.6587 38.3663 37.5321V37.2083L38.3667 17.6757V15.7101H1.96275L1.96231 15.709ZM27.0372 3.20849L30.9488 6.75919L26.5035 7.86786L22.5921 4.31749L27.0372 3.20849ZM17.8053 5.51225L21.7166 9.06262L17.2713 10.1716L13.3599 6.62092L17.8053 5.51225ZM8.57258 7.81535L12.4839 11.3654L8.03852 12.4744L4.1272 8.92403L8.57258 7.81535ZM35.1756 36.6548H4.82992V17.3662H35.1756V36.6548Z" fill="white"/>
<path d="M26.4278 27.4451L20.863 24.5036L15.2979 21.5625V33.3283L20.863 30.3865L26.4278 27.4451Z" fill="white"/>
</svg>
