<svg width="36" height="37" viewBox="0 0 36 37" fill="none" xmlns="http://www.w3.org/2000/svg">
<path fill-rule="evenodd" clip-rule="evenodd" d="M0.000244141 3.69981C0.000244141 1.65637 1.61184 0 3.60004 0H12.6003C14.5885 0 16.2004 1.65637 16.2004 3.69981V12.9501C16.2004 14.9936 14.5885 16.6502 12.6003 16.6502H3.60004C1.61184 16.6502 0.000244141 14.9936 0.000244141 12.9501V3.69981ZM3.60004 3.69981H12.6003V12.9501H3.60004V3.69981Z" fill="white"/>
<path d="M27.8999 21.2754C26.9057 21.2754 26.1 22.1035 26.1 23.1253V26.8254H22.4999C21.5057 26.8254 20.7 27.6536 20.7 28.6753C20.7 29.6971 21.5057 30.5255 22.4999 30.5255H26.1V34.2254C26.1 35.2471 26.9057 36.0756 27.8999 36.0756C28.894 36.0756 29.7001 35.2471 29.7001 34.2254V30.5255H33.2999C34.294 30.5255 35.1001 29.6971 35.1001 28.6753C35.1001 27.6536 34.294 26.8254 33.2999 26.8254H29.7001V23.1253C29.7001 22.1035 28.894 21.2754 27.8999 21.2754Z" fill="white"/>
<path fill-rule="evenodd" clip-rule="evenodd" d="M3.5998 20.3496C1.61159 20.3496 0 22.0063 0 24.0497V33.3001C0 35.3435 1.61159 36.9999 3.5998 36.9999H12.6001C14.5883 36.9999 16.2002 35.3435 16.2002 33.3001V24.0497C16.2002 22.0063 14.5883 20.3496 12.6001 20.3496H3.5998ZM12.6001 24.0497H3.5998V33.3001H12.6001V24.0497Z" fill="white"/>
<path fill-rule="evenodd" clip-rule="evenodd" d="M19.7998 3.69981C19.7998 1.65637 21.4117 0 23.3999 0H32.4002C34.3884 0 36 1.65637 36 3.69981V12.9501C36 14.9936 34.3884 16.6502 32.4002 16.6502H23.3999C21.4117 16.6502 19.7998 14.9936 19.7998 12.9501V3.69981ZM23.3999 3.69981H32.4002V12.9501H23.3999V3.69981Z" fill="white"/>
</svg>
