<svg width="17" height="18" viewBox="0 0 17 18" fill="none" xmlns="http://www.w3.org/2000/svg">
<g clip-path="url(#clip0_9_31)">
<path d="M12.817 9.51351L14.9714 7.43942C16.543 5.92693 16.543 3.46534 14.9714 1.95285C13.3999 0.43987 10.8428 0.43987 9.2713 1.95285L6.16217 4.9456C4.59052 6.45809 4.59052 8.91967 6.16217 10.4322C6.39422 10.6557 6.6482 10.8452 6.91697 11.0026L8.58144 9.40027C8.26439 9.32729 7.96366 9.17331 7.71682 8.93587C7.00248 8.24827 7.00248 7.12933 7.71682 6.44189L10.8259 3.44914C11.5403 2.76154 12.7027 2.76154 13.4169 3.44914C14.1313 4.13674 14.1313 5.25553 13.4169 5.94313L12.5035 6.82251C12.8799 7.67522 12.9839 8.61302 12.817 9.51351Z" fill="white"/>
<path d="M4.18317 6.85018L2.02876 8.9241C0.456944 10.4368 0.456944 12.8982 2.02876 14.4108C3.60007 15.9237 6.15738 15.9237 7.72886 14.4108L10.8378 11.4181C12.4095 9.90543 12.4093 7.44401 10.8378 5.93152C10.6059 5.70799 10.352 5.5185 10.0832 5.36108L8.41872 6.96341C8.7356 7.03656 9.03633 7.19021 9.28334 7.42781C9.99768 8.11541 9.99768 9.23419 9.28334 9.92179L6.17404 12.9145C5.4597 13.6021 4.29741 13.6021 3.58307 12.9145C2.86873 12.2269 2.86873 11.1082 3.58307 10.4206L4.49665 9.54134C4.1201 8.68863 4.01606 7.75067 4.18317 6.85018Z" fill="white"/>
</g>
<defs>
<clipPath id="clip0_9_31">
<rect width="17" height="18" fill="white"/>
</clipPath>
</defs>
</svg>
