<svg width="50" height="40" viewBox="0 0 50 40" fill="none" xmlns="http://www.w3.org/2000/svg">
<g clip-path="url(#clip0_9_17)">
<path d="M7.98499 0.96106C5.02145 0.96106 2.62562 3.35689 2.62562 6.32044V20.3673C2.62408 20.3881 2.62408 20.409 2.62562 20.4298V29.383V29.3985C2.62612 29.5784 2.63912 29.7699 2.65687 29.9453C2.65736 29.9503 2.65637 29.9558 2.65687 29.9608C2.67512 30.1359 2.70037 30.3067 2.73499 30.4764C2.77114 30.6562 2.80636 30.8193 2.85999 30.9921C2.91213 31.1603 2.97976 31.3157 3.04749 31.4764C3.04949 31.4814 3.04549 31.4879 3.04749 31.4919C3.11377 31.648 3.18606 31.7969 3.26624 31.9451C3.35053 32.1014 3.44862 32.2517 3.54749 32.3982C3.64373 32.5412 3.73521 32.6716 3.84437 32.8044C4.57097 33.6894 5.58571 34.3258 6.73499 34.6013C7.50626 36.6135 9.44891 38.0388 11.735 38.0388H42.0162C44.9798 38.0388 47.3756 35.6429 47.3756 32.6794V9.60132C47.3756 7.07518 45.6312 4.96709 43.2819 4.39819C42.5086 2.38996 40.5495 0.960693 38.2662 0.960693H7.98499V0.96106ZM7.98499 1.82043H38.2662C40.7736 1.82043 42.7819 3.81309 42.7819 6.32044V18.7423L37.8756 13.8361C36.7515 12.7118 35.2823 12.1486 33.8131 12.1486C32.344 12.1486 30.8607 12.7102 29.735 13.8361L20.9381 22.6486L14.6412 16.3673C13.5187 15.2446 12.0512 14.6642 10.5787 14.6642C9.10628 14.6642 7.63882 15.2446 6.51624 16.3673L3.48499 19.3986V6.32044C3.48499 3.81309 5.47765 1.82043 7.98499 1.82043ZM43.3131 4.52356C43.354 4.63806 43.3893 4.74935 43.4225 4.86731C43.4684 5.03061 43.5014 5.19805 43.5319 5.36731C45.2801 5.98243 46.5162 7.62817 46.5162 9.60169V32.6798C46.5162 35.1872 44.5236 37.1955 42.0162 37.1955H11.735C9.96953 37.1955 8.45855 36.2068 7.71937 34.7423C7.54858 34.7338 7.38547 34.7193 7.21937 34.6953C7.38304 34.7188 7.54954 34.7338 7.71937 34.7423C7.80933 34.7473 7.89388 34.7578 7.98499 34.7578H32.0631H38.2506C39.5471 34.7578 40.743 34.3065 41.6725 33.5391C42.3376 32.9903 42.8653 32.2838 43.2037 31.4766C43.2718 31.3159 43.3388 31.1605 43.3912 30.9923C43.4449 30.8195 43.4801 30.6564 43.5162 30.4766C43.5511 30.3068 43.576 30.1361 43.5944 29.961C43.5949 29.956 43.5939 29.95 43.5944 29.9455C43.6128 29.765 43.6256 29.5682 43.6256 29.383V19.758C43.626 19.7476 43.626 19.7373 43.6256 19.727V6.32071C43.6256 5.99346 43.5878 5.67852 43.5319 5.36758C43.5017 5.19986 43.4625 5.02902 43.4225 4.86758C43.393 4.7486 43.3526 4.63945 43.3131 4.52383V4.52356ZM20.8287 6.55481C18.4627 6.55481 16.5319 8.48535 16.5319 10.8517C16.5319 13.218 18.4627 15.1486 20.8287 15.1486C23.1947 15.1486 25.1256 13.218 25.1256 10.8517C25.1256 8.48535 23.1947 6.55481 20.8287 6.55481Z" fill="#5B5FEE"/>
</g>
<defs>
<clipPath id="clip0_9_17">
<rect width="50" height="40" fill="white"/>
</clipPath>
</defs>
</svg>
