<svg width="19" height="15" viewBox="0 0 19 15" fill="none" xmlns="http://www.w3.org/2000/svg">
<g clip-path="url(#clip0_9_51)">
<path d="M0 13.2156V1.2474C0 0.559851 0.562714 0 1.25378 0H17.7272C18.4182 0 18.9809 0.559851 18.9809 1.2474V13.2156C18.9809 13.8942 18.4423 14.463 17.7272 14.463H1.25378C0.539735 14.463 0 13.8937 0 13.2156H0ZM0.989794 1.09851L8.63239 9.03569C8.86891 9.2816 9.1497 9.39814 9.49103 9.39814C9.83236 9.39814 10.1132 9.2816 10.3497 9.03569L17.9917 1.09851C17.9777 1.07454 17.9614 1.05279 17.9424 1.03383C17.8875 0.979182 17.8107 0.94461 17.7277 0.94461H1.25434C1.17139 0.94461 1.0946 0.979182 1.03968 1.03383C1.02062 1.05279 1.00437 1.07454 0.990354 1.09851H0.989794ZM18.0315 2.41729L13.2019 7.43309L18.0315 12.7171V2.41784V2.41729ZM12.545 8.11561L11.0306 9.6881C10.617 10.1164 10.0885 10.3428 9.49047 10.3428C8.89245 10.3428 8.36392 10.1164 7.9503 9.6881L6.43646 8.11561L1.49758 13.519H17.4834L12.5445 8.11561H12.545ZM5.77959 7.43364L0.948879 2.41729V12.7177L5.77959 7.43309V7.43364Z" fill="#5B5FEE"/>
<path d="M0 13.2156V1.2474C0 0.559851 0.562714 0 1.25378 0H17.7272C18.4182 0 18.9809 0.559851 18.9809 1.2474V13.2156C18.9809 13.8942 18.4423 14.463 17.7272 14.463H1.25378C0.539735 14.463 0 13.8937 0 13.2156H0ZM0.989794 1.09851L8.63239 9.03569C8.86891 9.2816 9.1497 9.39814 9.49103 9.39814C9.83236 9.39814 10.1132 9.2816 10.3497 9.03569L17.9917 1.09851C17.9777 1.07454 17.9614 1.05279 17.9424 1.03383C17.8875 0.979182 17.8107 0.94461 17.7277 0.94461H1.25434C1.17139 0.94461 1.0946 0.979182 1.03968 1.03383C1.02062 1.05279 1.00437 1.07454 0.990354 1.09851H0.989794ZM18.0315 2.41729L13.2019 7.43309L18.0315 12.7171V2.41784V2.41729ZM12.545 8.11561L11.0306 9.6881C10.617 10.1164 10.0885 10.3428 9.49047 10.3428C8.89245 10.3428 8.36392 10.1164 7.9503 9.6881L6.43646 8.11561L1.49758 13.519H17.4834L12.5445 8.11561H12.545ZM5.77959 7.43364L0.948879 2.41729V12.7177L5.77959 7.43309V7.43364Z" fill="#203A54"/>
</g>
<defs>
<clipPath id="clip0_9_51">
<rect width="19" height="15" fill="white"/>
</clipPath>
</defs>
</svg>
