<svg width="40" height="39" viewBox="0 0 40 39" fill="none" xmlns="http://www.w3.org/2000/svg">
<path d="M17.596 15.7678V10.9523V8.29965V7.98627C17.596 7.72145 17.5519 8.16283 17.4989 8.24669C17.4327 8.34821 17.3444 8.4409 17.2385 8.5027C17.0222 8.62628 17.0134 8.58214 17.1105 8.56008C16.9428 8.60421 16.7971 8.5998 16.6382 8.53801C14.6167 7.74793 16.5588 8.49828 16.5544 8.50711C16.5544 8.51152 16.5897 8.52918 16.5941 8.53359C16.6647 8.58656 16.7442 8.63069 16.8148 8.67483C18.4391 9.72091 20.0589 10.767 21.6832 11.8086C21.9569 11.9852 22.2261 12.1573 22.4997 12.3339C22.5527 12.3692 22.6057 12.4045 22.6586 12.4354C22.6631 12.4354 22.6631 12.4398 22.6675 12.4398C22.513 12.3604 22.3585 12.1706 22.3232 11.9896C22.3232 11.9896 22.3055 11.6806 22.3011 11.8484C22.3011 11.6188 22.3673 11.5041 22.5262 11.3452C22.5748 11.2966 22.6189 11.2525 22.6675 11.2039C22.6631 11.2039 22.6586 11.2084 22.6542 11.2128C22.4689 11.301 22.2967 11.4423 22.1246 11.5526C21.7626 11.7866 21.4007 12.0205 21.0388 12.2544L18.2846 14.0287C17.9094 14.2671 17.5386 14.5099 17.1634 14.7482C16.9736 14.8718 16.7618 14.9821 16.5808 15.1234C16.572 15.1278 16.5587 15.1322 16.5499 15.141C16.6029 15.0792 16.7353 15.0748 16.8147 15.066C16.8677 15.0616 17.2252 15.1278 17.0619 15.0748C17.3797 15.1808 17.5739 15.4323 17.596 15.7678C17.5607 15.194 17.1149 14.6379 16.4925 14.6643C15.9275 14.6908 15.3493 15.1498 15.389 15.7678C15.4155 16.1915 15.5479 16.5579 15.8613 16.858C16.2144 17.2023 16.7794 17.3568 17.2561 17.2244C17.4282 17.1758 17.5871 17.1052 17.7372 17.0081C17.9888 16.8492 18.2359 16.6859 18.4831 16.527C19.4144 15.9267 20.3413 15.3309 21.2726 14.7305C22.0362 14.2406 22.7998 13.7463 23.5634 13.2563C23.6296 13.2122 23.7002 13.1724 23.7664 13.1283C24.2299 12.8193 24.5433 12.3294 24.5035 11.7556C24.4638 11.2171 24.1901 10.8198 23.7488 10.5241C23.6737 10.4712 23.5943 10.427 23.5192 10.3741C21.8155 9.27946 20.1118 8.18036 18.4125 7.08577C18.183 6.9357 17.949 6.78563 17.7195 6.63998C16.7088 6.0088 15.4287 6.72384 15.3935 7.89792C15.3758 8.51585 15.3935 9.13375 15.3935 9.75175V15.6486V15.7721C15.3935 16.3504 15.9011 16.9021 16.4969 16.8756C17.0928 16.8447 17.596 16.3857 17.596 15.7677L17.596 15.7678Z" fill="white"/>
<path d="M5.47511 22.914H8.28671H14.9913H23.0905H30.0908C31.2252 22.914 32.3595 22.9361 33.4938 22.914H33.5424C34.1206 22.914 34.6723 22.4064 34.6459 21.8105C34.6194 21.2147 34.1603 20.7071 33.5424 20.7071H30.7308H24.0262H15.927H8.92671C7.79233 20.7071 6.65804 20.685 5.52366 20.7071H5.47511C4.89689 20.7071 4.34517 21.2147 4.37164 21.8105C4.39813 22.4064 4.85275 22.914 5.47511 22.914Z" fill="white"/>
<path d="M10.1409 20.5927V23.0203C10.1409 23.5985 10.6485 24.1502 11.2443 24.1237C11.8402 24.0972 12.3478 23.6382 12.3478 23.0203V20.5927C12.3478 20.0144 11.8402 19.4627 11.2443 19.4892C10.6485 19.5201 10.1409 19.9747 10.1409 20.5927Z" fill="white"/>
<path d="M36.8051 26.1141C36.8096 26.017 36.836 25.9464 36.8669 25.8581C36.9243 25.708 36.9022 25.7875 36.8758 25.8272C36.9243 25.7478 36.9817 25.6992 37.0479 25.6374C37.1582 25.5359 37.1141 25.5889 37.07 25.6109C37.1009 25.5933 37.3878 25.4697 37.4054 25.5094H37.3878C37.3569 25.505 37.3127 25.5094 37.2818 25.5094H36.814H34.9822H32.1354H28.5249H24.398H20.0195H15.5924H11.3816H7.63422H4.61075H2.52302H1.91392C1.83005 25.5094 1.7153 25.4873 1.63585 25.5094H1.62261L1.79916 25.5359C1.78592 25.5315 2.02868 25.6551 1.93157 25.5977C1.83447 25.5359 2.05515 25.6992 2.04633 25.686C2.0375 25.6727 2.1964 25.8978 2.13461 25.8007C2.07723 25.7036 2.19641 25.9464 2.19641 25.9331L2.22289 26.1097C2.2273 26.1097 2.22289 26.0347 2.22289 26.0302C2.2273 25.8537 2.22289 25.6771 2.22289 25.5006V23.2054V19.6699V15.4282V11.0232V6.9316V3.7007V1.85576C2.22289 1.79397 2.2273 1.73218 2.22289 1.67479C2.22289 1.66155 2.2273 1.6439 2.22289 1.63065C2.22289 1.63507 2.15668 1.89548 2.12137 1.95286C2.14785 1.90872 2.19641 1.86458 2.09489 1.97493C2.0331 2.04114 1.98454 2.09851 1.90509 2.14707C2.05516 2.04997 1.62261 2.2839 1.61819 2.21769H1.62261C1.62261 2.2221 1.64026 2.21769 1.64468 2.21769C1.67999 2.2221 1.71971 2.21769 1.75502 2.21769H3.02176H5.41408H8.68913H12.5777H16.8768H21.3215H25.6647H29.6459H33.0578H35.6355H37.1273C37.2023 2.21769 37.3259 2.24417 37.3965 2.21769H37.4098C37.4054 2.2839 36.9728 2.04997 37.1229 2.14707C37.0434 2.09852 36.9949 2.04114 36.9331 1.97493C36.8316 1.86459 36.8845 1.90872 36.9066 1.95286C36.8845 1.91755 36.7654 1.63948 36.8051 1.62182C36.8007 1.62624 36.8051 1.70127 36.8051 1.7101V3.23729V6.24753V10.1935V14.5985V18.9152V22.6228V25.1872V26.1141C36.8051 26.6923 37.3127 27.244 37.9086 27.2175C38.5044 27.1911 39.012 26.732 39.012 26.1141V25.1034V22.4286V18.6282V14.2409V9.80949V5.87239V2.95925C39.012 2.52228 39.0208 2.08088 39.012 1.63948C38.9899 0.725848 38.3058 0.0328735 37.3877 0.00196168C37.295 -0.0024521 37.1979 0.00196168 37.1008 0.00196168H35.5516H32.9122H29.4297H25.3601H20.9552H16.4708H12.1584H8.26984H5.05662H2.77471C2.40836 0.00196168 2.03761 -0.0024521 1.67125 0.00196168C0.753175 0.0107897 0.0381671 0.686106 0.00281621 1.60857C-0.00159765 1.70126 0.00281621 1.79837 0.00281621 1.89106V3.83309V7.16108V11.3322V15.8078V20.0495V23.5143V25.6639C0.00281621 25.8007 -0.00159765 25.9375 0.00281621 26.0788C0.0292987 26.9924 0.713442 27.6854 1.6271 27.7119C1.93607 27.7207 2.24503 27.7119 2.55397 27.7119H4.69464H7.79753H11.6331H15.9057H20.3813H24.8084H28.9353H32.5061H35.2691H36.9685H37.3348C38.2661 27.703 38.9503 27.0277 39.0033 26.1053C39.0386 25.527 38.4736 24.9753 37.8998 25.0018C37.2819 25.0371 36.8405 25.4917 36.8052 26.1141L36.8051 26.1141Z" fill="white"/>
<path d="M10.0876 36.7872H7.71296H3.48893H2.00145C1.8911 36.7872 1.77192 36.7784 1.66159 36.7872C1.62186 36.7917 1.538 36.774 1.70573 36.8005C1.79401 36.8137 1.87345 36.8402 1.9529 36.8888C1.90876 36.8623 1.86462 36.8137 1.97497 36.9152C2.04117 36.977 2.09855 37.0256 2.14711 37.105C2.12062 37.0653 2.09855 36.9815 2.15593 37.1359C2.17359 37.1801 2.22214 37.3743 2.21773 37.3831C2.25304 37.3037 2.21773 37.1359 2.21773 37.0521V36.3459V34.2846V32.2498V31.548C2.21773 31.4818 2.25304 31.2876 2.21773 31.2258C2.22655 31.2435 2.17359 31.4245 2.15593 31.473C2.09855 31.6231 2.12062 31.5436 2.14711 31.5039C2.09855 31.5834 2.04117 31.6319 1.97497 31.6937C1.86462 31.7952 1.90876 31.7423 1.9529 31.7202C1.86462 31.7732 1.71897 31.8394 1.61745 31.8217C1.63511 31.8261 1.65276 31.8217 1.666 31.8217C1.78518 31.8261 1.89993 31.8217 2.01911 31.8217H3.50659H7.75265H9.42109H9.91102C9.95957 31.8217 10.2023 31.8394 9.99488 31.8085C9.9066 31.7952 9.82716 31.7687 9.74771 31.7202C9.79185 31.7467 9.83599 31.7952 9.72564 31.6937C9.65943 31.6319 9.60206 31.5833 9.5535 31.5039C9.64619 31.6451 9.50936 31.4112 9.50936 31.3936C9.51378 31.4024 9.50495 31.164 9.48288 31.2302C9.47405 31.2611 9.48288 31.3141 9.48288 31.345V31.8879V33.777V37.2816C9.48288 37.3037 9.46964 37.361 9.48288 37.3831C9.47405 37.3654 9.52702 37.1845 9.54467 37.1359C9.60205 36.9859 9.57998 37.0653 9.5535 37.105C9.60205 37.0256 9.65943 36.977 9.72564 36.9152C9.83599 36.8137 9.79185 36.8667 9.74771 36.8888C9.85806 36.827 9.96399 36.7961 10.0876 36.7872C9.51377 36.8225 8.95763 37.2728 8.98411 37.8907C9.01059 38.4601 9.46962 39.0294 10.0876 38.9942C10.9924 38.9412 11.6677 38.288 11.6942 37.3699C11.6986 37.2419 11.6942 37.1139 11.6942 36.9903V35.1718V31.3715C11.6942 31.0405 11.6545 30.705 11.4779 30.4093C11.1645 29.8929 10.6349 29.6148 10.039 29.606C9.6859 29.6016 9.33721 29.606 8.98413 29.606H4.71152C3.69635 29.606 2.67674 29.5927 1.66157 29.606C1.07454 29.6148 0.5184 29.8885 0.21824 30.4093C0.050517 30.705 0.00196171 31.0316 0.00196171 31.3626V32.8943V36.9771C0.00196171 37.1095 -0.00245214 37.2375 0.00196171 37.3699C0.0284442 38.2615 0.690513 38.9456 1.5821 38.9942C1.83369 39.0074 2.08969 38.9942 2.34127 38.9942H6.44173H9.89773H10.0831C10.6613 38.9942 11.213 38.4866 11.1866 37.8907C11.1645 37.2948 10.7055 36.7872 10.0875 36.7872H10.0876Z" fill="white"/>
<path d="M23.7445 36.7872H21.3698H17.1458H15.6583C15.548 36.7872 15.4288 36.7784 15.3184 36.7872C15.2787 36.7917 15.1949 36.774 15.3626 36.8005C15.4509 36.8137 15.5303 36.8402 15.6098 36.8888C15.5656 36.8623 15.5215 36.8137 15.6318 36.9152C15.698 36.977 15.7554 37.0256 15.804 37.105C15.7775 37.0653 15.7554 36.9815 15.8128 37.1359C15.8304 37.1801 15.879 37.3743 15.8746 37.3831C15.9099 37.3037 15.8746 37.1359 15.8746 37.0521V36.3459V34.2846V32.2498V31.548C15.8746 31.4818 15.9099 31.2876 15.8746 31.2258C15.8834 31.2435 15.8304 31.4245 15.8128 31.473C15.7554 31.6231 15.7775 31.5436 15.804 31.5039C15.7554 31.5834 15.698 31.6319 15.6318 31.6937C15.5215 31.7952 15.5656 31.7423 15.6098 31.7202C15.5215 31.7732 15.3758 31.8394 15.2743 31.8217C15.292 31.8261 15.3096 31.8217 15.3229 31.8217C15.442 31.8261 15.5568 31.8217 15.676 31.8217H17.1634H21.4095H23.0779H23.5679C23.6164 31.8217 23.8592 31.8394 23.6517 31.8085C23.5635 31.7952 23.484 31.7687 23.4046 31.7202C23.4487 31.7467 23.4928 31.7952 23.3825 31.6937C23.3163 31.6319 23.2589 31.5833 23.2104 31.5039C23.303 31.6451 23.1662 31.4112 23.1662 31.3936C23.1706 31.4024 23.1618 31.164 23.1397 31.2302C23.1309 31.2611 23.1397 31.3141 23.1397 31.345V31.8879V33.777V37.2816C23.1397 37.3037 23.1265 37.361 23.1397 37.3831C23.1309 37.3654 23.1839 37.1845 23.2015 37.1359C23.2589 36.9859 23.2368 37.0653 23.2104 37.105C23.2589 37.0256 23.3163 36.977 23.3825 36.9152C23.4928 36.8137 23.4487 36.8667 23.4046 36.8888C23.5193 36.827 23.6208 36.7961 23.7444 36.7872C23.1706 36.8225 22.6145 37.2728 22.641 37.8907C22.6674 38.4601 23.1265 39.0294 23.7444 38.9942C24.6493 38.9412 25.3246 38.288 25.351 37.3699C25.3555 37.2419 25.351 37.1139 25.351 36.9903V35.1718V31.3715C25.351 31.0405 25.3113 30.705 25.1348 30.4093C24.8214 29.8929 24.2917 29.6148 23.6959 29.606C23.3428 29.6016 22.9941 29.606 22.641 29.606H18.3684C17.3532 29.606 16.3336 29.5927 15.3184 29.606C14.7314 29.6148 14.1753 29.8885 13.8751 30.4093C13.7074 30.705 13.6588 31.0316 13.6588 31.3626V32.8943V36.9771C13.6588 37.1095 13.6544 37.2375 13.6588 37.3699C13.6853 38.2615 14.3474 38.9456 15.239 38.9942C15.4905 39.0074 15.7465 38.9942 15.9981 38.9942H20.0986H23.5546H23.74C24.3182 38.9942 24.8699 38.4866 24.8434 37.8907C24.8214 37.2948 24.3667 36.7872 23.7444 36.7872H23.7445Z" fill="white"/>
<path d="M37.4046 36.7872H35.03H30.8059H29.3185C29.2081 36.7872 29.0889 36.7784 28.9786 36.7872C28.9389 36.7917 28.855 36.774 29.0227 36.8005C29.111 36.8137 29.1905 36.8402 29.2699 36.8888C29.2258 36.8623 29.1816 36.8137 29.292 36.9152C29.3582 36.977 29.4156 37.0256 29.4641 37.105C29.4376 37.0653 29.4156 36.9815 29.473 37.1359C29.4906 37.1801 29.5392 37.3743 29.5347 37.3831C29.5701 37.3037 29.5347 37.1359 29.5347 37.0521V36.3459V34.2846V32.2498V31.548C29.5347 31.4818 29.5701 31.2876 29.5347 31.2258C29.5436 31.2435 29.4906 31.4245 29.473 31.473C29.4156 31.6231 29.4376 31.5436 29.4641 31.5039C29.4156 31.5834 29.3582 31.6319 29.292 31.6937C29.1816 31.7952 29.2258 31.7423 29.2699 31.7202C29.1816 31.7732 29.036 31.8394 28.9345 31.8217C28.9521 31.8261 28.9698 31.8217 28.983 31.8217C29.1022 31.8261 29.217 31.8217 29.3361 31.8217H30.8236H35.0697H36.7381H37.228C37.2766 31.8217 37.5193 31.8394 37.3119 31.8085C37.2236 31.7952 37.1442 31.7687 37.0647 31.7202C37.1089 31.7467 37.153 31.7952 37.0427 31.6937C36.9764 31.6319 36.9191 31.5833 36.8705 31.5039C36.9632 31.6451 36.8264 31.4112 36.8264 31.3936C36.8308 31.4024 36.822 31.164 36.7999 31.2302C36.7911 31.2611 36.7999 31.3141 36.7999 31.345V31.8879V33.777V37.2816C36.7999 37.3037 36.7867 37.361 36.7999 37.3831C36.7911 37.3654 36.844 37.1845 36.8617 37.1359C36.9191 36.9859 36.897 37.0653 36.8705 37.105C36.9191 37.0256 36.9764 36.977 37.0427 36.9152C37.153 36.8137 37.1089 36.8667 37.0647 36.8888C37.1751 36.827 37.2766 36.7961 37.4046 36.7872C36.8308 36.8225 36.2747 37.2728 36.3011 37.8907C36.3276 38.4601 36.7866 39.0294 37.4046 38.9942C38.3094 38.9412 38.9847 38.288 39.0112 37.3699C39.0156 37.2419 39.0112 37.1139 39.0112 36.9903V35.1718V31.3715C39.0112 31.0405 38.9715 30.705 38.7949 30.4093C38.4815 29.8929 37.9519 29.6148 37.356 29.606C37.0029 29.6016 36.6542 29.606 36.3011 29.606H32.0285C31.0134 29.606 29.9938 29.5927 28.9786 29.606C28.3916 29.6148 27.8354 29.8885 27.5353 30.4093C27.3675 30.705 27.319 31.0316 27.319 31.3626V32.8943V36.9771C27.319 37.1095 27.3146 37.2375 27.319 37.3699C27.3455 38.2615 28.0075 38.9456 28.8991 38.9942C29.1507 39.0074 29.4067 38.9942 29.6583 38.9942H33.7587H37.2147H37.4001C37.9783 38.9942 38.5301 38.4866 38.5036 37.8907C38.4815 37.2948 38.0225 36.7872 37.4046 36.7872H37.4046Z" fill="white"/>
</svg>
