<svg width="26" height="25" viewBox="0 0 26 25" fill="none" xmlns="http://www.w3.org/2000/svg">
<path d="M12.6235 0C9.27553 0 6.06467 1.31706 3.6973 3.66113C1.33002 6.00524 0 9.18464 0 12.5C0 15.8154 1.33007 18.9947 3.6973 21.3389C6.06457 23.683 9.27539 25 12.6235 25C15.9716 25 19.1823 23.6829 21.5497 21.3389C23.917 18.9948 25.247 15.8154 25.247 12.5C25.2432 9.18589 23.912 6.0087 21.5455 3.66545C19.179 1.3221 15.9704 0.00394226 12.6237 0.000192292L12.6235 0ZM12.6235 23.0767C9.79062 23.0767 7.07406 21.9623 5.07082 19.9788C3.06758 17.9952 1.94226 15.305 1.94226 12.5C1.94226 9.69497 3.06768 7.00485 5.07082 5.02121C7.07396 3.03757 9.79076 1.92325 12.6235 1.92325C15.4562 1.92325 18.1729 3.03767 20.1762 5.02121C22.1794 7.00475 23.3047 9.69497 23.3047 12.5C23.3013 15.3042 22.1749 17.9927 20.1726 19.9754C18.1702 21.9582 15.4553 23.0735 12.6233 23.0769L12.6235 23.0767Z" fill="#DCDCDC"/>
<path d="M12.6237 4.8075C11.3365 4.809 10.1024 5.31605 9.19228 6.21729C8.28213 7.11854 7.77006 8.34054 7.76855 9.61515V10.5767H9.71062V9.61515C9.71062 8.85006 10.0175 8.11632 10.5639 7.57545C11.1101 7.0344 11.8511 6.73056 12.6237 6.73056C13.3964 6.73056 14.1374 7.03442 14.6836 7.57545C15.23 8.11632 15.5368 8.85006 15.5368 9.61515C15.5368 10.3802 15.23 11.114 14.6836 11.6548C14.1374 12.1959 13.3964 12.4997 12.6237 12.4997C12.3662 12.4997 12.1192 12.601 11.9371 12.7814C11.7549 12.9617 11.6527 13.2062 11.6527 13.4613V17.3074H13.5947V14.3267C15.1821 14.0074 16.5042 12.9253 17.1197 11.4417C17.7351 9.95791 17.5627 8.26806 16.6601 6.9362C15.7576 5.60434 14.2436 4.80583 12.6237 4.80751L12.6237 4.8075Z" fill="#DCDCDC"/>
<path d="M13.5944 19.2307C13.5944 19.7618 13.1597 20.1922 12.6234 20.1922C12.087 20.1922 11.6523 19.7618 11.6523 19.2307C11.6523 18.6996 12.087 18.2692 12.6234 18.2692C13.1597 18.2692 13.5944 18.6996 13.5944 19.2307Z" fill="#DCDCDC"/>
</svg>
