<svg width="46" height="26" viewBox="0 0 46 26" fill="none" xmlns="http://www.w3.org/2000/svg">
<path d="M25.1348 9.85999C22.2066 9.85999 19.8242 12.242 19.8242 15.1706C19.8242 18.0988 22.2062 20.4812 25.1348 20.4812C28.063 20.4812 30.4454 18.0992 30.4454 15.1706C30.445 12.242 28.063 9.85999 25.1348 9.85999ZM27.6444 15.761L24.2319 18.0538C24.1123 18.1345 23.974 18.1749 23.8352 18.1749C23.7207 18.1749 23.6053 18.1472 23.5004 18.0915C23.2682 17.9677 23.1233 17.7259 23.1233 17.4634L23.1237 12.8777C23.1237 12.6148 23.2686 12.3731 23.5008 12.2497C23.733 12.1267 24.0139 12.1397 24.2323 12.2873L27.6448 14.5802C27.8416 14.712 27.9596 14.9338 27.9596 15.171C27.9592 15.4073 27.8412 15.6291 27.6444 15.761L27.6444 15.761Z" fill="#DCDCDC"/>
<path d="M37.2503 8.66043H37.1677C35.9096 3.59083 31.3724 0 26.073 0C21.6004 0 17.5502 2.63566 15.6957 6.64932C14.9058 6.3645 14.0794 6.22689 13.2253 6.22689C9.32198 6.22689 6.11707 9.27613 5.86871 13.1149C2.58075 13.4086 0 16.1823 0 19.5436C0 23.1072 2.90203 26 6.45636 26H37.2508C42.0356 26 45.9204 22.1059 45.9204 17.3304C45.9204 12.5545 42.0356 8.66043 37.2508 8.66043H37.2503ZM25.1362 22.3175C21.1964 22.3175 17.9911 19.1122 17.9911 15.1723C17.9911 11.2324 21.1964 8.02713 25.1362 8.02713C29.0761 8.02713 32.2814 11.2324 32.2814 15.1723C32.2814 19.1122 29.0761 22.3175 25.1362 22.3175Z" fill="#DCDCDC"/>
</svg>
