<svg width="39" height="30" viewBox="0 0 39 30" fill="none" xmlns="http://www.w3.org/2000/svg">
<path d="M26.0526 0V4.43742C19.4607 6.10877 10.0659 10.5824 7.01417 20C14.6405 13.3209 25.4237 14.0485 26.0526 14.0782V18.5156L38.0769 9.26556L26.0526 0ZM0 5.00002V29.0001C0 29.5236 0.477385 30 1.00194 30H27.0546C27.5791 30 28.0565 29.5236 28.0565 29.0001V19.4849C27.3925 20.0056 26.7218 20.5179 26.0526 21.0317V28.0005H2.00405V6.00046H16.7526C18.182 5.20805 19.6291 4.551 21.0424 4.00064H1.00194C0.402233 4.01145 0.0122569 4.5503 0 5.00055V5.00002Z" fill="#DCDCDC"/>
</svg>
