<svg width="34" height="34" viewBox="0 0 34 34" fill="none" xmlns="http://www.w3.org/2000/svg">
<path d="M20.8357 10.8105C20.8357 12.9288 19.1185 14.6463 16.9999 14.6463C14.8812 14.6463 13.1641 12.9288 13.1641 10.8105C13.1641 8.69185 14.8812 6.97437 16.9999 6.97437C19.1185 6.97437 20.8357 8.69185 20.8357 10.8105Z" fill="#4C4A60"/>
<path d="M17 0C7.62796 0 0 7.62795 0 17C0 26.372 7.62796 34 17 34C26.372 34 34 26.372 34 17C34 7.62795 26.372 0 17 0ZM17 5.23077C20.0512 5.23077 22.5796 7.71538 22.5796 10.8104C22.5796 13.905 20.0512 16.3461 17 16.3461C13.9488 16.3461 11.4204 13.8615 11.4204 10.7666C11.4204 7.67189 13.9488 5.23077 17 5.23077ZM25.1951 27.8972C25.1951 23.2768 21.3593 19.2231 17 19.2231C12.6411 19.2231 8.80488 23.2769 8.80488 27.8972H7.06139C7.06139 22.2306 11.6383 17.479 16.9998 17.479C22.3614 17.4793 26.9383 22.2305 26.9383 27.8972H25.1951Z" fill="#4C4A60"/>
</svg>
