<?xml version="1.0" encoding="utf-8"?>
<!-- Generator: Adobe Illustrator 19.0.0, SVG Export Plug-In . SVG Version: 6.00 Build 0)  -->
<svg version="1.1" id="Layer_1" xmlns="http://www.w3.org/2000/svg" xmlns:xlink="http://www.w3.org/1999/xlink" x="0px" y="0px"
	 viewBox="-288 380 34 34" style="enable-background:new -288 380 34 34;" xml:space="preserve">
<style type="text/css">
	.st0{fill:#DCDCDC;}
</style>
<path class="st0" d="M-267.2,390.8c0,2.1-1.7,3.8-3.8,3.8c-2.1,0-3.8-1.7-3.8-3.8c0-2.1,1.7-3.8,3.8-3.8
	C-268.9,387-267.2,388.7-267.2,390.8z"/>
<path class="st0" d="M-271,380c-9.4,0-17,7.6-17,17c0,9.4,7.6,17,17,17c9.4,0,17-7.6,17-17C-254,387.6-261.6,380-271,380z
	 M-271,385.2c3.1,0,5.6,2.5,5.6,5.6c0,3.1-2.5,5.5-5.6,5.5s-5.6-2.5-5.6-5.6C-276.6,387.7-274.1,385.2-271,385.2z M-262.8,407.9
	c0-4.6-3.8-8.7-8.2-8.7c-4.4,0-8.2,4.1-8.2,8.7h-1.7c0-5.7,4.6-10.4,9.9-10.4c5.4,0,9.9,4.8,9.9,10.4H-262.8z"/>
</svg>
