<?xml version="1.0" encoding="UTF-8"?>
<svg width="17px" height="17px" viewBox="0 0 17 17" version="1.1" xmlns="http://www.w3.org/2000/svg" xmlns:xlink="http://www.w3.org/1999/xlink">
    <title>F235B1EA-27EA-478C-ACF3-F70F08CAAF7F</title>
    <defs>
        <filter id="filter-1">
            <feColorMatrix in="SourceGraphic" type="matrix" values="0 0 0 0 0.094118 0 0 0 0 0.231373 0 0 0 0 0.337255 0 0 0 1.000000 0"></feColorMatrix>
        </filter>
    </defs>
    <g id="FOMO" stroke="none" stroke-width="1" fill="none" fill-rule="evenodd">
        <g id="ic_adb-copy-2" transform="translate(-1292.000000, -217.000000)" filter="url(#filter-1)">
            <g transform="translate(1292.000000, 217.000000)">
                <rect id="Boundary" fill-opacity="0" fill="#FFFFFF" x="0" y="0" width="17" height="17"></rect>
                <path d="M7.79166667,2.83333333 C10.5300786,2.83333333 12.75,5.05325478 12.75,7.79166667 C12.75,8.90009292 12.3862913,9.92357047 11.7717075,10.7492657 L13.9623223,12.9556287 C13.9843338,12.9776402 14.0046022,13.0008121 14.0231214,13.024959 L14.4637525,13.4707513 L13.4620179,14.4724859 L10.7653452,11.7596887 C9.93687499,12.3815467 8.90729927,12.75 7.79166667,12.75 C5.05325478,12.75 2.83333333,10.5300786 2.83333333,7.79166667 C2.83333333,5.05325478 5.05325478,2.83333333 7.79166667,2.83333333 Z M7.79166667,4.25 C5.83565818,4.25 4.25,5.83565818 4.25,7.79166667 C4.25,9.74767516 5.83565818,11.3333333 7.79166667,11.3333333 C9.74767516,11.3333333 11.3333333,9.74767516 11.3333333,7.79166667 C11.3333333,5.83565818 9.74767516,4.25 7.79166667,4.25 Z" id="Shape" fill="#000000" fill-rule="nonzero"></path>
            </g>
        </g>
    </g>
</svg>