<?xml version="1.0" encoding="UTF-8"?>
<svg width="30px" height="30px" viewBox="0 0 30 30" version="1.1" xmlns="http://www.w3.org/2000/svg" xmlns:xlink="http://www.w3.org/1999/xlink">
    <title>A25526DA-A792-43AB-BD6A-F7FFAD7B488F</title>
    <g id="FOMO" stroke="none" stroke-width="1" fill="none" fill-rule="evenodd">
        <g id="_SHARE/1" transform="translate(-759.000000, -778.000000)">
            <g id="Group-14" transform="translate(659.000000, 747.000000)">
                <g id="Group-29" transform="translate(50.400000, 31.200000)">
                    <g id="Group" transform="translate(50.400000, 0.000000)">
                        <polygon id="Path" points="0 0 28.8 0 28.8 28.8 0 28.8"></polygon>
                        <path d="M25.2,3.6 L3.6,3.6 C2.28,3.6 1.2,4.68 1.2,6 L1.2,22.8 C1.2,24.12 2.28,25.2 3.6,25.2 L25.2,25.2 C26.52,25.2 27.6,24.12 27.6,22.8 L27.6,6 C27.6,4.68 26.52,3.6 25.2,3.6 Z M24,6 C24.66,6 25.2,6.54 25.2,7.2 L25.2,21.6 C25.2,22.26 24.66,22.8 24,22.8 L4.8,22.8 C4.14,22.8 3.6,22.26 3.6,21.6 L3.6,7.2 C3.6,6.54 4.14,6 4.8,6 L24,6 Z M17.824,13.2 L13.024,19.5245136 L9.6,15.2918288 L4.8,21.6 L24,21.6 L17.824,13.2 Z" id="🔹Icon-Color" fill="#98A1AD"></path>
                    </g>
                </g>
            </g>
        </g>
    </g>
</svg>