<svg width="42" height="36" viewBox="0 0 42 36" fill="none" xmlns="http://www.w3.org/2000/svg">
<path d="M0 0.659985V5.10174H4.33405V0H0.785379C0.345698 0 7.70176e-06 0.290321 7.70176e-06 0.659914L0 0.659985Z" fill="#FF5C00"/>
<path d="M0 6.42188H4.33405V11.4907H0V6.42188Z" fill="#FF5C00"/>
<path d="M0 12.8109H4.33405V17.8798H0V12.8109Z" fill="#FF5C00"/>
<path d="M0 19.1993H4.33405V24.2682H0V19.1993Z" fill="#FF5C00"/>
<path d="M0 30.0301C0 30.3997 0.34537 30.69 0.785043 30.69H4.33405V25.588L0 25.5883V30.0301Z" fill="#FF5C00"/>
<path d="M5.90381 30.6906H27.3074V0.000244141H5.90381V30.6906ZM11.8947 11.8274C11.8947 11.1277 12.358 10.5072 13.1115 10.2103C13.8575 9.90673 14.7211 9.99264 15.3648 10.4346L20.5312 13.9524C21.0257 14.2955 21.3162 14.8037 21.3162 15.3449C21.3162 15.886 21.0257 16.3943 20.5312 16.7373L15.3648 20.2551C14.98 20.5192 14.5091 20.6576 14.03 20.6576C13.4175 20.6576 12.8052 20.4333 12.3656 19.9778C12.0436 19.641 11.8944 19.2054 11.8944 18.7701L11.8947 11.8274Z" fill="#FF5C00"/>
<path d="M33.212 0.660036C33.212 0.290436 32.8666 0.00012207 32.4269 0.00012207H28.8779V6.19767H33.212V0.660036Z" fill="#FF5C00"/>
<path d="M28.8779 7.51721H33.212V11.8535H28.8779V7.51721Z" fill="#FF5C00"/>
<path d="M28.8779 13.1737H33.212V17.51H28.8779V13.1737Z" fill="#FF5C00"/>
<path d="M28.878 28.1823C29.1294 28.103 29.4041 28.0503 29.6867 28.0503H30.0715V27.7268C30.0715 26.6379 31.1316 25.7468 32.4269 25.7468C32.7095 25.7468 32.9688 25.7929 33.212 25.8655V18.83H28.8779L28.878 28.1823Z" fill="#FF5C00"/>
<path d="M40.5529 29.2749H36.948V26.2248C36.948 25.5512 36.2966 25 35.5003 25C34.704 25 34.0526 25.5512 34.0526 26.2248V29.2749H30.4477C29.6514 29.2749 29 29.826 29 30.4997C29 31.1734 29.6514 31.7246 30.4477 31.7246H34.0526L34.052 34.7752C34.052 35.4488 34.7034 36 35.4997 36C36.296 36 36.9474 35.4488 36.9474 34.7752V31.7251H40.5523C41.3486 31.7251 42 31.174 42 30.5003C42.0012 29.8261 41.3498 29.2749 40.5529 29.2749V29.2749Z" fill="#FF5C00"/>
</svg>
