<?xml version="1.0" encoding="UTF-8"?>
<svg width="28px" height="27px" viewBox="0 0 28 27" version="1.1" xmlns="http://www.w3.org/2000/svg" xmlns:xlink="http://www.w3.org/1999/xlink">
    <title>939B4C58-EF01-45C3-A23E-C4ADBC31772D</title>
    <g id="LANDING" stroke="none" stroke-width="1" fill="none" fill-rule="evenodd">
        <g id="_Fomo_Landing-Marketing" transform="translate(-190.000000, -4661.000000)">
            <g id="Group-27" transform="translate(150.000000, 4350.000000)">
                <g id="Group-18" transform="translate(0.000000, 18.000000)">
                    <g id="Group-11" transform="translate(40.000000, 50.000000)">
                        <g id="Icon" transform="translate(0.235294, 243.000000)">
                            <circle id="Oval" fill="#e1f9f2" cx="13.4117647" cy="13.4117647" r="13.4117647"></circle>
                            <path d="M11.621774,17.685892 L7.97633236,14.0622793 C7.87446362,13.9604106 7.82352941,13.8294366 7.82352941,13.6693575 C7.82352941,13.5092783 7.87446362,13.3783044 7.97633236,13.2764356 L8.78400506,12.4905919 C8.8858738,12.3741707 9.01320948,12.3159666 9.16601242,12.3159666 C9.31881537,12.3159666 9.4534276,12.3741707 9.56984878,12.4905919 L12.0146959,14.935439 L17.253654,9.69648091 C17.3700752,9.58005973 17.5046874,9.52184898 17.6574903,9.52184898 C17.8102933,9.52184898 17.937629,9.58005973 18.0394977,9.69648091 L18.8471704,10.4823246 C18.9490391,10.5841934 18.9999734,10.7151673 18.9999734,10.8752465 C18.9999734,11.0353256 18.9490391,11.1662996 18.8471704,11.2681683 L12.4076177,17.685892 C12.305749,17.8023132 12.1747751,17.8605239 12.0146959,17.8605239 C11.8546167,17.8605239 11.7236428,17.8023132 11.621774,17.685892 Z" fill="#3BD8A9" fill-rule="nonzero"></path>
                        </g>
                    </g>
                </g>
            </g>
        </g>
    </g>
</svg>