<?xml version="1.0" encoding="UTF-8"?>
<svg width="28px" height="23px" viewBox="0 0 28 23" version="1.1" xmlns="http://www.w3.org/2000/svg" xmlns:xlink="http://www.w3.org/1999/xlink">
    <title>439AB427-07BB-451C-9963-C0AE5A55FBBB</title>
    <defs>
        <filter id="filter-1">
            <feColorMatrix in="SourceGraphic" type="matrix" values="0 0 0 0 0.094118 0 0 0 0 0.231373 0 0 0 0 0.337255 0 0 0 1.000000 0"></feColorMatrix>
        </filter>
    </defs>
    <g id="LANDING" stroke="none" stroke-width="1" fill="none" fill-rule="evenodd">
        <g id="004-twitter" transform="translate(-250.000000, -5893.000000)" filter="url(#filter-1)">
            <g transform="translate(250.200000, 5893.000000)">
                <path d="M26.7461875,3.25296769 C25.7483187,3.6887748 24.6927808,3.97829894 23.6122087,4.11258869 C24.7513,3.43710763 25.6027997,2.36697968 26.0051349,1.10526256 C24.9389838,1.7380835 23.7723874,2.1837598 22.5558719,2.42298879 C21.0303763,0.791544185 18.6624338,0.258800323 16.585206,1.07969791 C14.5079782,1.9005955 13.1439437,3.90817563 13.1458514,6.14172541 C13.1420239,6.55833413 13.1845021,6.97407815 13.2725041,7.38130429 C8.89590445,7.16633514 4.81801533,5.09749979 2.05970472,1.69271515 C0.604489862,4.17872047 1.33804033,7.36807034 3.7331362,8.96850419 C2.87196188,8.94528939 2.02902477,8.71514537 1.27553635,8.29751476 L1.27553635,8.35679897 C1.28053364,10.9441446 3.09926522,13.1734124 5.63292556,13.6977671 C5.16773981,13.8199871 4.68836524,13.8797956 4.20740986,13.8756197 C3.86109731,13.882017 3.51509568,13.8513015 3.17532571,13.7839986 C3.89700019,15.9962883 5.93401153,17.5140614 8.26029383,17.5727984 C6.33658385,19.0764294 3.96508401,19.893174 1.52345212,19.8929667 C1.08840728,19.8966686 0.653597117,19.8714622 0.221894306,19.8175141 C2.7114841,21.4226588 5.61341547,22.2707716 8.57557802,22.2590675 C18.5865248,22.2590675 24.059535,13.9672407 24.059535,6.78037801 C24.059535,6.54054644 24.059535,6.30879909 24.0406718,6.07705173 C25.1065344,5.3078093 26.0233406,4.35082434 26.7461875,3.25296769 L26.7461875,3.25296769 Z" id="Icon" fill="#FFFFFF" fill-rule="nonzero"></path>
            </g>
        </g>
    </g>
</svg>