<?xml version="1.0" encoding="UTF-8"?>
<svg width="24px" height="17px" viewBox="0 0 24 17" version="1.1" xmlns="http://www.w3.org/2000/svg" xmlns:xlink="http://www.w3.org/1999/xlink">
    <title>76CFE7F4-A3D9-4D24-B5CC-BE6A87D90B40</title>
    <defs>
        <filter id="filter-1">
            <feColorMatrix in="SourceGraphic" type="matrix" values="0 0 0 0 0.094118 0 0 0 0 0.231373 0 0 0 0 0.337255 0 0 0 1.000000 0"></feColorMatrix>
        </filter>
    </defs>
    <g id="LANDING" stroke="none" stroke-width="1" fill="none" fill-rule="evenodd">
        <g id="003-youtube" transform="translate(-198.000000, -5896.000000)" filter="url(#filter-1)">
            <g transform="translate(198.600000, 5896.000000)">
                <path d="M18.1818089,0.775746607 L4.77818865,0.775746607 C3.69639774,0.775746607 2.65895351,1.20567049 1.89426456,1.97086484 C1.12957562,2.7360592 0.700337056,3.77378727 0.701051162,4.85557794 L0.701051162,12.1044196 C0.700337056,13.1862103 1.12957562,14.2239384 1.89426456,14.9891327 C2.65895351,15.7543271 3.69639774,16.184251 4.77818865,16.184251 L18.1818089,16.184251 C19.2635998,16.184251 20.3010441,15.7543271 21.065733,14.9891327 C21.8304219,14.2239384 22.2596605,13.1862103 22.2589464,12.1044196 L22.2589464,4.85557794 C22.2596605,3.77378727 21.8304219,2.7360592 21.065733,1.97086484 C20.3010441,1.20567049 19.2635998,0.775746607 18.1818089,0.775746607 L18.1818089,0.775746607 Z M8.63974632,11.783746 L8.63974632,5.17625161 L14.3202512,8.47999878 L8.63974632,11.783746 Z" id="Icon" fill="#FFFFFF" fill-rule="nonzero"></path>
            </g>
        </g>
    </g>
</svg>