<?xml version="1.0" encoding="UTF-8"?>
<svg width="24px" height="23px" viewBox="0 0 24 23" version="1.1" xmlns="http://www.w3.org/2000/svg" xmlns:xlink="http://www.w3.org/1999/xlink">
    <title>F0DD67A2-658F-4D2B-B916-4DE734BE5974</title>
    <defs>
        <filter id="filter-1">
            <feColorMatrix in="SourceGraphic" type="matrix" values="0 0 0 0 0.094118 0 0 0 0 0.231373 0 0 0 0 0.337255 0 0 0 1.000000 0"></feColorMatrix>
        </filter>
    </defs>
    <g id="LANDING" stroke="none" stroke-width="1" fill="none" fill-rule="evenodd">
        <g id="007-linkedin" transform="translate(-305.000000, -5893.000000)" filter="url(#filter-1)">
            <g transform="translate(305.800000, 5893.000000)">
                <g id="Icon" transform="translate(0.671578, 0.701052)" fill="#FFFFFF" fill-rule="nonzero">
                    <path d="M21.5873671,21.5578935 L21.5873671,13.651536 C21.5873671,9.78189415 20.7546935,6.80421012 16.2329253,6.80421012 C14.0582728,6.80421012 12.6004203,7.99528373 12.0048835,9.12707314 L11.9429046,9.12707314 L11.9429046,7.16530484 L7.65557849,7.16530484 L7.65557849,21.5578935 L12.1180624,21.5578935 L12.1180624,14.4303149 C12.1180624,12.5439993 12.4737677,10.7385257 14.8127991,10.7385257 C17.1518306,10.7385257 17.1356621,12.894315 17.1356621,14.5515781 L17.1356621,21.5578935 L21.5873671,21.5578935 Z" id="Path"></path>
                    <polygon id="Path" points="0.385178924 7.16530484 4.85305234 7.16530484 4.85305234 21.5578935 0.385178924 21.5578935"></polygon>
                    <path d="M2.6164209,-2.23526849e-05 C1.56245558,-0.00435470424 0.610097827,0.627909033 0.205001809,1.60092448 C-0.20009421,2.57393993 0.022198693,3.69524658 0.767858936,4.4401309 C1.51351918,5.18501522 2.63505665,5.40614059 3.60764982,5.00003176 C4.58024299,4.59392293 5.21151486,3.64090743 5.20609788,2.58694721 C5.20609788,1.90037901 4.93314076,1.24197015 4.44741107,0.756745904 C3.96168138,0.271521655 3.30298873,-0.000715175217 2.6164209,-2.23526849e-05 L2.6164209,-2.23526849e-05 Z" id="Path"></path>
                </g>
            </g>
        </g>
    </g>
</svg>