<?xml version="1.0" encoding="UTF-8"?>
<svg width="13px" height="23px" viewBox="0 0 13 23" version="1.1" xmlns="http://www.w3.org/2000/svg" xmlns:xlink="http://www.w3.org/1999/xlink">
    <title>1336642A-2065-4162-9D2B-868A28E73940</title>
    <defs>
        <filter id="filter-1">
            <feColorMatrix in="SourceGraphic" type="matrix" values="0 0 0 0 0.094118 0 0 0 0 0.231373 0 0 0 0 0.337255 0 0 0 1.000000 0"></feColorMatrix>
        </filter>
    </defs>
    <g id="LANDING" stroke="none" stroke-width="1" fill="none" fill-rule="evenodd">
        <g id="002-facebook" transform="translate(-150.000000, -5893.000000)" filter="url(#filter-1)">
            <g transform="translate(150.000000, 5893.000000)">
                <path d="M3.90383051,12.8731776 L1.22526225,12.8731776 C0.804883328,12.8731776 0.653978074,12.7195777 0.653978074,12.296504 C0.653978074,11.2060339 0.653978074,10.116462 0.653978074,9.0277884 C0.653978074,8.60740948 0.812967538,8.44842001 1.22795699,8.44842001 L3.90383051,8.44842001 L3.90383051,6.09052542 C3.87207229,5.0313843 4.12619525,3.98324343 4.63949363,3.05625191 C5.17309036,2.12038965 6.02813407,1.40992781 7.04589348,1.0567573 C7.7064007,0.816428383 8.40451433,0.695969562 9.10736704,0.700897684 L11.7562932,0.700897684 C12.1362511,0.700897684 12.2952405,0.868125728 12.2952405,1.23999939 L12.2952405,4.31469394 C12.2952405,4.70004129 12.1335563,4.85364128 11.7562932,4.85364128 C11.031409,4.85364128 10.3065249,4.85364128 9.58433544,4.88328338 C8.86214601,4.91292549 8.46871445,5.24168336 8.46871445,5.99620963 C8.45254603,6.80463064 8.46871445,7.59688322 8.46871445,8.42147265 L11.5811353,8.42147265 C12.0230721,8.42147265 12.1739774,8.5723779 12.1739774,9.01700945 C12.1739774,10.0949041 12.1739774,11.1781883 12.1739774,12.2668619 C12.1739774,12.706104 12.0338511,12.8435355 11.5892195,12.8462303 L8.45254603,12.8462303 L8.45254603,21.6149034 C8.45254603,22.0837876 8.30703025,22.2319981 7.84353554,22.2319981 L4.46972521,22.2319981 C4.06281998,22.2319981 3.90383051,22.0730087 3.90383051,21.6661034 L3.90383051,12.8731776 Z" id="Icon" fill="#FFFFFF" fill-rule="nonzero"></path>
            </g>
        </g>
    </g>
</svg>