<?xml version="1.0" encoding="UTF-8"?>
<svg width="196px" height="60px" viewBox="0 0 196 60" version="1.1" xmlns="http://www.w3.org/2000/svg" xmlns:xlink="http://www.w3.org/1999/xlink">
    <title>E840DEA6-55A2-44DC-B611-E12C546C8A10</title>
    <defs>
        <path d="M20.5470758,10.2735379 C20.5470758,15.9474174 15.9474174,20.5470758 10.2735379,20.5470758 C4.5996584,20.5470758 2.90967261e-13,15.9474174 2.90967261e-13,10.2735379 C2.90967261e-13,4.5996584 4.5996584,-3.47498043e-13 10.2735379,-3.47498043e-13 C15.9474174,-3.47498043e-13 20.5470758,4.5996584 20.5470758,10.2735379 Z" id="path-1"></path>
    </defs>
    <g id="LANDING" stroke="none" stroke-width="1" fill="none" fill-rule="evenodd">
        <g id="_Fomo_Landing-Marketing" transform="translate(-150.000000, -50.000000)">
            <g id="Group-20-Copy" transform="translate(150.000000, 50.000000)">
                <path d="M3.03764205,55 L3.03764205,50.7940341 L7.17897727,50.7940341 L7.17897727,49.0191761 L3.03764205,49.0191761 L3.03764205,46.5930398 L7.62642045,46.5930398 L7.62642045,44.8181818 L0.884943182,44.8181818 L0.884943182,55 L3.03764205,55 Z M10.1022727,46.3792614 C10.4171402,46.3792614 10.6864347,46.2740294 10.9101562,46.0635653 C11.1338778,45.8531013 11.2457386,45.6003788 11.2457386,45.3053977 C11.2457386,45.0137311 11.1338778,44.7626657 10.9101562,44.5522017 C10.6864347,44.3417377 10.415483,44.2365057 10.0973011,44.2365057 C9.78574811,44.2365057 9.5172822,44.3417377 9.29190341,44.5522017 C9.06652462,44.7626657 8.95383523,45.0137311 8.95383523,45.3053977 C8.95383523,45.6003788 9.06652462,45.8531013 9.29190341,46.0635653 C9.5172822,46.2740294 9.7874053,46.3792614 10.1022727,46.3792614 Z M11.1512784,55 L11.1512784,47.3636364 L9.03338068,47.3636364 L9.03338068,55 L11.1512784,55 Z M14.959517,55 L14.959517,50.5852273 C14.9628314,50.2571023 15.0249763,49.9762074 15.1459517,49.7425426 C15.2669271,49.5088778 15.4359612,49.3307292 15.653054,49.2080966 C15.8701468,49.085464 16.1212121,49.0241477 16.40625,49.0241477 C16.8304924,49.0241477 17.163589,49.1558949 17.4055398,49.4193892 C17.6474905,49.6828835 17.7668087,50.0482955 17.7634943,50.515625 L17.7634943,50.515625 L17.7634943,55 L19.881392,55 L19.881392,50.1377841 C19.881392,49.5445076 19.772017,49.0332623 19.553267,48.6040483 C19.334517,48.1748343 19.0279356,47.8442235 18.6335227,47.6122159 C18.2391098,47.3802083 17.7767519,47.2642045 17.2464489,47.2642045 C16.6796875,47.2642045 16.1974432,47.3942945 15.7997159,47.6544744 C15.4019886,47.9146544 15.118608,48.2668087 14.9495739,48.7109375 L14.9495739,48.7109375 L14.8600852,48.7109375 L14.8600852,47.3636364 L12.8416193,47.3636364 L12.8416193,55 L14.959517,55 Z M24.3607955,55.1242898 C24.7717803,55.1242898 25.1206203,55.0563447 25.4073153,54.9204545 C25.6940104,54.7845644 25.9276752,54.6130445 26.1083097,54.4058949 C26.2889441,54.1987453 26.4289773,53.9891098 26.5284091,53.7769886 L26.5284091,53.7769886 L26.6178977,53.7769886 L26.6178977,55 L28.7059659,55 L28.7059659,44.8181818 L26.5930398,44.8181818 L26.5930398,48.6463068 L26.5284091,48.6463068 C26.4356061,48.4408144 26.3005445,48.231179 26.1232244,48.0174006 C25.9459044,47.8036222 25.7138968,47.6246449 25.4272017,47.4804688 C25.1405066,47.3362926 24.7833807,47.2642045 24.3558239,47.2642045 C23.7956913,47.2642045 23.2811316,47.4092093 22.8121449,47.6992188 C22.3431581,47.9892282 21.967803,48.425071 21.6860795,49.0067472 C21.4043561,49.5884233 21.2634943,50.3167614 21.2634943,51.1917614 C21.2634943,52.0435606 21.4002131,52.7619555 21.6736506,53.346946 C21.9470881,53.9319366 22.3183002,54.3744081 22.7872869,54.6743608 C23.2562737,54.9743134 23.7807765,55.1242898 24.3607955,55.1242898 Z M25.0319602,53.4389205 C24.6839489,53.4389205 24.3914536,53.3436316 24.1544744,53.153054 C23.9174953,52.9624763 23.7368608,52.6973248 23.612571,52.3575994 C23.4882812,52.0178741 23.4261364,51.625947 23.4261364,51.1818182 C23.4261364,50.7410038 23.4874527,50.3532197 23.6100852,50.0184659 C23.7327178,49.6837121 23.9133523,49.421875 24.1519886,49.2329545 C24.390625,49.0440341 24.6839489,48.9495739 25.0319602,48.9495739 C25.3733428,48.9495739 25.6633523,49.0407197 25.9019886,49.2230114 C26.140625,49.405303 26.3229167,49.6638258 26.4488636,49.9985795 C26.5748106,50.3333333 26.6377841,50.7277462 26.6377841,51.1818182 C26.6377841,51.6358902 26.573982,52.0319602 26.4463778,52.3700284 C26.3187737,52.7080966 26.136482,52.9707623 25.8995028,53.1580256 C25.6625237,53.3452888 25.3733428,53.4389205 25.0319602,53.4389205 Z M38.3160511,55.1392045 C39.2142519,55.1392045 40.0237926,54.9345407 40.7446733,54.5252131 C41.465554,54.1158854 42.0356297,53.5217803 42.4549006,52.7428977 C42.8741714,51.9640152 43.0838068,51.0194129 43.0838068,49.9090909 C43.0838068,48.7987689 42.8741714,47.8541667 42.4549006,47.0752841 C42.0356297,46.2964015 41.465554,45.7022964 40.7446733,45.2929688 C40.0237926,44.8836411 39.2142519,44.6789773 38.3160511,44.6789773 C37.4112216,44.6789773 36.5991951,44.8836411 35.8799716,45.2929688 C35.1607481,45.7022964 34.5923295,46.2964015 34.1747159,47.0752841 C33.7571023,47.8541667 33.5482955,48.7987689 33.5482955,49.9090909 C33.5482955,51.0160985 33.7571023,51.9590436 34.1747159,52.7379261 C34.5923295,53.5168087 35.1607481,54.1117424 35.8799716,54.5227273 C36.5991951,54.9337121 37.4112216,55.1392045 38.3160511,55.1392045 Z M38.3160511,53.2350852 C37.7956913,53.2350852 37.3416193,53.1074811 36.9538352,52.8522727 C36.5660511,52.5970644 36.2652699,52.2225379 36.0514915,51.7286932 C35.8377131,51.2348485 35.7308239,50.6283144 35.7308239,49.9090909 C35.7308239,49.1898674 35.8377131,48.5833333 36.0514915,48.0894886 C36.2652699,47.5956439 36.5660511,47.2211174 36.9538352,46.9659091 C37.3416193,46.7107008 37.7956913,46.5830966 38.3160511,46.5830966 C38.836411,46.5830966 39.290483,46.7107008 39.678267,46.9659091 C40.0660511,47.2211174 40.3668324,47.5956439 40.5806108,48.0894886 C40.7943892,48.5833333 40.9012784,49.1898674 40.9012784,49.9090909 C40.9012784,50.6283144 40.7943892,51.2348485 40.5806108,51.7286932 C40.3668324,52.2225379 40.0660511,52.5970644 39.678267,52.8522727 C39.290483,53.1074811 38.836411,53.2350852 38.3160511,53.2350852 Z M47.2201705,55.0994318 C47.7935606,55.0994318 48.2799479,54.9635417 48.6793324,54.6917614 C49.0787169,54.4199811 49.3645833,54.0603693 49.5369318,53.6129261 L49.5369318,53.6129261 L49.6164773,53.6129261 L49.6164773,55 L51.649858,55 L51.649858,47.3636364 L49.5319602,47.3636364 L49.5319602,51.7485795 C49.5352746,52.0899621 49.4681581,52.3766572 49.3306108,52.6086648 C49.1930634,52.8406723 49.0132576,53.0155066 48.7911932,53.1331676 C48.5691288,53.2508286 48.3304924,53.3096591 48.0752841,53.3096591 C47.6742424,53.3096591 47.3544034,53.1787405 47.115767,52.9169034 C46.8771307,52.6550663 46.7561553,52.2987689 46.7528409,51.8480114 L46.7528409,51.8480114 L46.7528409,47.3636364 L44.6349432,47.3636364 L44.6349432,52.2258523 C44.6382576,52.8224432 44.7484612,53.334517 44.965554,53.7620739 C45.1826468,54.1896307 45.4850852,54.5194129 45.8728693,54.7514205 C46.2606534,54.983428 46.7097538,55.0994318 47.2201705,55.0994318 Z M56.1428642,55.1070273 L56.3927557,55.1044034 C56.6678504,55.0944602 56.9015152,55.0671165 57.09375,55.0223722 C57.2859848,54.9776278 57.4351326,54.9386837 57.5411932,54.9055398 L57.5411932,54.9055398 L57.2080966,53.3295455 C57.1550663,53.3394886 57.0788352,53.3535748 56.9794034,53.371804 C56.8799716,53.3900331 56.7805398,53.3991477 56.681108,53.3991477 C56.538589,53.3991477 56.4134706,53.3776042 56.3057528,53.334517 C56.198035,53.2914299 56.1143466,53.2160275 56.0546875,53.1083097 C55.9950284,53.0005919 55.9651989,52.8489583 55.9651989,52.6534091 L55.9651989,52.6534091 L55.965,48.955 L57.4019886,48.9545455 L57.4019886,47.3636364 L55.965,47.364 L55.9651989,45.5340909 L53.8473011,45.5340909 L53.847,47.364 L52.803267,47.3636364 L52.803267,48.9545455 L53.847,48.955 L53.8473011,52.9318182 C53.8444602,53.3607955 53.9207589,53.726461 54.0761972,54.0288149 L54.1605114,54.1747159 C54.3726326,54.5028409 54.6700994,54.7447917 55.0529119,54.9005682 C55.4357244,55.0563447 55.882339,55.1242898 56.3927557,55.1044034 L56.1428642,55.1070273 Z M64.1534091,55 L64.1534091,48.3480114 L64.2379261,48.3480114 L66.8728693,54.9502841 L68.2947443,54.9502841 L70.9296875,48.3728693 L71.0142045,48.3728693 L71.0142045,55 L73.1022727,55 L73.1022727,44.8181818 L70.4474432,44.8181818 L67.6434659,51.6590909 L67.5241477,51.6590909 L64.7201705,44.8181818 L62.0653409,44.8181818 L62.0653409,55 L64.1534091,55 Z M78.2826705,55.1491477 C79.0549242,55.1491477 79.721946,54.9842566 80.2837358,54.6544744 C80.8455256,54.3246922 81.2788826,53.8639915 81.5838068,53.2723722 C81.8887311,52.6807528 82.0411932,51.9938447 82.0411932,51.2116477 C82.0411932,50.422822 81.8887311,49.7325994 81.5838068,49.1409801 C81.2788826,48.5493608 80.8455256,48.08866 80.2837358,47.7588778 C79.721946,47.4290956 79.0549242,47.2642045 78.2826705,47.2642045 C77.5104167,47.2642045 76.8433949,47.4290956 76.2816051,47.7588778 C75.7198153,48.08866 75.2864583,48.5493608 74.9815341,49.1409801 C74.6766098,49.7325994 74.5241477,50.422822 74.5241477,51.2116477 C74.5241477,51.9938447 74.6766098,52.6807528 74.9815341,53.2723722 C75.2864583,53.8639915 75.7198153,54.3246922 76.2816051,54.6544744 C76.8433949,54.9842566 77.5104167,55.1491477 78.2826705,55.1491477 Z M78.2926136,53.5085227 C77.9379735,53.5085227 77.6405066,53.4082623 77.4002131,53.2077415 C77.1599195,53.0072206 76.979285,52.7329545 76.8583097,52.3849432 C76.7373343,52.0369318 76.6768466,51.6408617 76.6768466,51.196733 C76.6768466,50.7526042 76.7373343,50.3565341 76.8583097,50.0085227 C76.979285,49.6605114 77.1599195,49.3854167 77.4002131,49.1832386 C77.6405066,48.9810606 77.9379735,48.8799716 78.2926136,48.8799716 C78.6439394,48.8799716 78.9372633,48.9810606 79.1725852,49.1832386 C79.4079072,49.3854167 79.5860559,49.6605114 79.7070312,50.0085227 C79.8280066,50.3565341 79.8884943,50.7526042 79.8884943,51.196733 C79.8884943,51.6408617 79.8280066,52.0369318 79.7070312,52.3849432 C79.5860559,52.7329545 79.4079072,53.0072206 79.1725852,53.2077415 C78.9372633,53.4082623 78.6439394,53.5085227 78.2926136,53.5085227 Z M85.5411932,55 L85.5411932,50.6796875 C85.5411932,50.3681345 85.6116241,50.0930398 85.7524858,49.8544034 C85.8933475,49.615767 86.0855824,49.4293324 86.3291903,49.2950994 C86.5727983,49.1608665 86.8503788,49.09375 87.1619318,49.09375 C87.3077652,49.09375 87.4685133,49.1053504 87.6441761,49.1285511 C87.819839,49.1517519 87.9573864,49.178267 88.0568182,49.2080966 L88.0568182,49.2080966 L88.0568182,47.3288352 C87.9640152,47.3056345 87.8562973,47.2874053 87.7336648,47.2741477 C87.6110322,47.2608902 87.4966856,47.2542614 87.390625,47.2542614 C86.9630682,47.2542614 86.5852273,47.3760653 86.2571023,47.6196733 C85.9289773,47.8632812 85.6953125,48.2220644 85.556108,48.6960227 L85.556108,48.6960227 L85.4765625,48.6960227 L85.4765625,47.3636364 L83.4232955,47.3636364 L83.4232955,55 L85.5411932,55 Z M92.2677557,55.1491477 C92.8974905,55.1491477 93.4534801,55.0522017 93.9357244,54.8583097 C94.4179688,54.6644176 94.8123816,54.3926373 95.1189631,54.0429688 C95.4255445,53.6933002 95.6285511,53.2831439 95.727983,52.8125 L95.727983,52.8125 L93.7691761,52.6832386 C93.6962595,52.8754735 93.5901989,53.0378788 93.4509943,53.1704545 C93.3117898,53.3030303 93.1444129,53.4024621 92.9488636,53.46875 C92.7533144,53.5350379 92.5378788,53.5681818 92.3025568,53.5681818 C91.9479167,53.5681818 91.6413352,53.493608 91.3828125,53.3444602 C91.1242898,53.1953125 90.9245975,52.9831913 90.7837358,52.7080966 C90.6428741,52.4330019 90.5724432,52.1065341 90.5724432,51.7286932 L90.5724432,51.7286932 L90.572,51.724 L95.7727273,51.7237216 L95.7727273,51.1420455 C95.7727273,50.4924242 95.6815814,49.9248343 95.4992898,49.4392756 C95.3169981,48.9537169 95.0626184,48.5501894 94.7361506,48.2286932 C94.4096828,47.907197 94.0285275,47.6660748 93.5926847,47.5053267 C93.1568419,47.3445786 92.6870265,47.2642045 92.1832386,47.2642045 C91.4341856,47.2642045 90.7820786,47.4299242 90.2269176,47.7613636 C89.6717566,48.092803 89.241714,48.555161 88.9367898,49.1484375 C88.6318655,49.741714 88.4794034,50.431108 88.4794034,51.2166193 C88.4794034,52.022017 88.6318655,52.7188684 88.9367898,53.3071733 C89.241714,53.8954782 89.6767282,54.3495502 90.2418324,54.6693892 C90.8069366,54.9892282 91.4822443,55.1491477 92.2677557,55.1491477 Z M90.5825852,50.3031392 C90.6069792,50.0706013 90.674858,49.8555634 90.7862216,49.6580256 C90.9254261,49.4111032 91.1184896,49.2138968 91.3654119,49.0664062 C91.6123343,48.9189157 91.8965436,48.8451705 92.2180398,48.8451705 C92.5262784,48.8451705 92.7972301,48.9122869 93.0308949,49.0465199 C93.2645597,49.1807528 93.4476799,49.3655303 93.5802557,49.6008523 C93.7128314,49.8361742 93.7791193,50.1062973 93.7791193,50.4112216 L93.7791193,50.4112216 L90.576,50.412 L90.5825852,50.3031392 Z M105.02983,55.1392045 C105.92803,55.1392045 106.737571,54.9345407 107.458452,54.5252131 C108.179332,54.1158854 108.749408,53.5217803 109.168679,52.7428977 C109.58795,51.9640152 109.797585,51.0194129 109.797585,49.9090909 C109.797585,48.7987689 109.58795,47.8541667 109.168679,47.0752841 C108.749408,46.2964015 108.179332,45.7022964 107.458452,45.2929688 C106.737571,44.8836411 105.92803,44.6789773 105.02983,44.6789773 C104.125,44.6789773 103.312973,44.8836411 102.59375,45.2929688 C101.874527,45.7022964 101.306108,46.2964015 100.888494,47.0752841 C100.470881,47.8541667 100.262074,48.7987689 100.262074,49.9090909 C100.262074,51.0160985 100.470881,51.9590436 100.888494,52.7379261 C101.306108,53.5168087 101.874527,54.1117424 102.59375,54.5227273 C103.312973,54.9337121 104.125,55.1392045 105.02983,55.1392045 Z M105.02983,53.2350852 C104.50947,53.2350852 104.055398,53.1074811 103.667614,52.8522727 C103.27983,52.5970644 102.979048,52.2225379 102.76527,51.7286932 C102.551491,51.2348485 102.444602,50.6283144 102.444602,49.9090909 C102.444602,49.1898674 102.551491,48.5833333 102.76527,48.0894886 C102.979048,47.5956439 103.27983,47.2211174 103.667614,46.9659091 C104.055398,46.7107008 104.50947,46.5830966 105.02983,46.5830966 C105.550189,46.5830966 106.004261,46.7107008 106.392045,46.9659091 C106.77983,47.2211174 107.080611,47.5956439 107.294389,48.0894886 C107.508168,48.5833333 107.615057,49.1898674 107.615057,49.9090909 C107.615057,50.6283144 107.508168,51.2348485 107.294389,51.7286932 C107.080611,52.2225379 106.77983,52.5970644 106.392045,52.8522727 C106.004261,53.1074811 105.550189,53.2350852 105.02983,53.2350852 Z M113.466619,57.8636364 L113.466619,53.7769886 L113.53125,53.7769886 C113.627367,53.9891098 113.766572,54.1987453 113.948864,54.4058949 C114.131155,54.6130445 114.365649,54.7845644 114.652344,54.9204545 C114.939039,55.0563447 115.287879,55.1242898 115.698864,55.1242898 C116.278883,55.1242898 116.803385,54.9743134 117.272372,54.6743608 C117.741359,54.3744081 118.112571,53.9319366 118.386009,53.346946 C118.659446,52.7619555 118.796165,52.0435606 118.796165,51.1917614 C118.796165,50.3167614 118.655303,49.5884233 118.37358,49.0067472 C118.091856,48.425071 117.715672,47.9892282 117.245028,47.6992188 C116.774384,47.4092093 116.260653,47.2642045 115.703835,47.2642045 C115.276278,47.2642045 114.919152,47.3362926 114.632457,47.4804688 C114.345762,47.6246449 114.113755,47.8036222 113.936435,48.0174006 C113.759115,48.231179 113.624053,48.4408144 113.53125,48.6463068 L113.53125,48.6463068 L113.43679,48.6463068 L113.43679,47.3636364 L111.348722,47.3636364 L111.348722,57.8636364 L113.466619,57.8636364 Z M115.027699,53.4389205 C114.686316,53.4389205 114.396307,53.3452888 114.15767,53.1580256 C113.919034,52.9707623 113.736742,52.7080966 113.610795,52.3700284 C113.484848,52.0319602 113.421875,51.6358902 113.421875,51.1818182 C113.421875,50.7277462 113.484848,50.3333333 113.610795,49.9985795 C113.736742,49.6638258 113.918205,49.405303 114.155185,49.2230114 C114.392164,49.0407197 114.683002,48.9495739 115.027699,48.9495739 C115.37571,48.9495739 115.669034,49.0440341 115.90767,49.2329545 C116.146307,49.421875 116.326941,49.6837121 116.449574,50.0184659 C116.572206,50.3532197 116.633523,50.7410038 116.633523,51.1818182 C116.633523,51.625947 116.571378,52.0178741 116.447088,52.3575994 C116.322798,52.6973248 116.141335,52.9624763 115.902699,53.153054 C115.664062,53.3436316 115.372396,53.4389205 115.027699,53.4389205 Z M122.321023,57.8636364 L122.321023,53.7769886 L122.385653,53.7769886 C122.481771,53.9891098 122.620975,54.1987453 122.803267,54.4058949 C122.985559,54.6130445 123.220052,54.7845644 123.506747,54.9204545 C123.793442,55.0563447 124.142282,55.1242898 124.553267,55.1242898 C125.133286,55.1242898 125.657789,54.9743134 126.126776,54.6743608 C126.595762,54.3744081 126.966974,53.9319366 127.240412,53.346946 C127.513849,52.7619555 127.650568,52.0435606 127.650568,51.1917614 C127.650568,50.3167614 127.509706,49.5884233 127.227983,49.0067472 C126.946259,48.425071 126.570076,47.9892282 126.099432,47.6992188 C125.628788,47.4092093 125.115057,47.2642045 124.558239,47.2642045 C124.130682,47.2642045 123.773556,47.3362926 123.486861,47.4804688 C123.200166,47.6246449 122.968158,47.8036222 122.790838,48.0174006 C122.613518,48.231179 122.478456,48.4408144 122.385653,48.6463068 L122.385653,48.6463068 L122.291193,48.6463068 L122.291193,47.3636364 L120.203125,47.3636364 L120.203125,57.8636364 L122.321023,57.8636364 Z M123.882102,53.4389205 C123.54072,53.4389205 123.25071,53.3452888 123.012074,53.1580256 C122.773437,52.9707623 122.591146,52.7080966 122.465199,52.3700284 C122.339252,52.0319602 122.276278,51.6358902 122.276278,51.1818182 C122.276278,50.7277462 122.339252,50.3333333 122.465199,49.9985795 C122.591146,49.6638258 122.772609,49.405303 123.009588,49.2230114 C123.246567,49.0407197 123.537405,48.9495739 123.882102,48.9495739 C124.230114,48.9495739 124.523437,49.0440341 124.762074,49.2329545 C125.00071,49.421875 125.181345,49.6837121 125.303977,50.0184659 C125.42661,50.3532197 125.487926,50.7410038 125.487926,51.1818182 C125.487926,51.625947 125.425781,52.0178741 125.301491,52.3575994 C125.177202,52.6973248 124.995739,52.9624763 124.757102,53.153054 C124.518466,53.3436316 124.226799,53.4389205 123.882102,53.4389205 Z M132.507812,55.1491477 C133.280066,55.1491477 133.947088,54.9842566 134.508878,54.6544744 C135.070668,54.3246922 135.504025,53.8639915 135.808949,53.2723722 C136.113873,52.6807528 136.266335,51.9938447 136.266335,51.2116477 C136.266335,50.422822 136.113873,49.7325994 135.808949,49.1409801 C135.504025,48.5493608 135.070668,48.08866 134.508878,47.7588778 C133.947088,47.4290956 133.280066,47.2642045 132.507812,47.2642045 C131.735559,47.2642045 131.068537,47.4290956 130.506747,47.7588778 C129.944957,48.08866 129.5116,48.5493608 129.206676,49.1409801 C128.901752,49.7325994 128.74929,50.422822 128.74929,51.2116477 C128.74929,51.9938447 128.901752,52.6807528 129.206676,53.2723722 C129.5116,53.8639915 129.944957,54.3246922 130.506747,54.6544744 C131.068537,54.9842566 131.735559,55.1491477 132.507812,55.1491477 Z M132.517756,53.5085227 C132.163116,53.5085227 131.865649,53.4082623 131.625355,53.2077415 C131.385062,53.0072206 131.204427,52.7329545 131.083452,52.3849432 C130.962476,52.0369318 130.901989,51.6408617 130.901989,51.196733 C130.901989,50.7526042 130.962476,50.3565341 131.083452,50.0085227 C131.204427,49.6605114 131.385062,49.3854167 131.625355,49.1832386 C131.865649,48.9810606 132.163116,48.8799716 132.517756,48.8799716 C132.869081,48.8799716 133.162405,48.9810606 133.397727,49.1832386 C133.633049,49.3854167 133.811198,49.6605114 133.932173,50.0085227 C134.053149,50.3565341 134.113636,50.7526042 134.113636,51.196733 C134.113636,51.6408617 134.053149,52.0369318 133.932173,52.3849432 C133.811198,52.7329545 133.633049,53.0072206 133.397727,53.2077415 C133.162405,53.4082623 132.869081,53.5085227 132.517756,53.5085227 Z M139.766335,55 L139.766335,50.6796875 C139.766335,50.3681345 139.836766,50.0930398 139.977628,49.8544034 C140.11849,49.615767 140.310724,49.4293324 140.554332,49.2950994 C140.79794,49.1608665 141.075521,49.09375 141.387074,49.09375 C141.532907,49.09375 141.693655,49.1053504 141.869318,49.1285511 C142.044981,49.1517519 142.182528,49.178267 142.28196,49.2080966 L142.28196,49.2080966 L142.28196,47.3288352 C142.189157,47.3056345 142.081439,47.2874053 141.958807,47.2741477 C141.836174,47.2608902 141.721828,47.2542614 141.615767,47.2542614 C141.18821,47.2542614 140.810369,47.3760653 140.482244,47.6196733 C140.154119,47.8632812 139.920455,48.2220644 139.78125,48.6960227 L139.78125,48.6960227 L139.701705,48.6960227 L139.701705,47.3636364 L137.648438,47.3636364 L137.648438,55 L139.766335,55 Z M146.556216,55.1070273 L146.806108,55.1044034 C147.081203,55.0944602 147.314867,55.0671165 147.507102,55.0223722 C147.699337,54.9776278 147.848485,54.9386837 147.954545,54.9055398 L147.954545,54.9055398 L147.621449,53.3295455 C147.568419,53.3394886 147.492187,53.3535748 147.392756,53.371804 C147.293324,53.3900331 147.193892,53.3991477 147.09446,53.3991477 C146.951941,53.3991477 146.826823,53.3776042 146.719105,53.334517 C146.611387,53.2914299 146.527699,53.2160275 146.46804,53.1083097 C146.408381,53.0005919 146.378551,52.8489583 146.378551,52.6534091 L146.378551,52.6534091 L146.378,48.955 L147.815341,48.9545455 L147.815341,47.3636364 L146.378,47.364 L146.378551,45.5340909 L144.260653,45.5340909 L144.26,47.364 L143.216619,47.3636364 L143.216619,48.9545455 L144.26,48.955 L144.260653,52.9318182 C144.257812,53.3607955 144.334111,53.726461 144.48955,54.0288149 L144.573864,54.1747159 C144.785985,54.5028409 145.083452,54.7447917 145.466264,54.9005682 C145.849077,55.0563447 146.295691,55.1242898 146.806108,55.1044034 L146.556216,55.1070273 Z M151.777699,55.0994318 C152.351089,55.0994318 152.837476,54.9635417 153.236861,54.6917614 C153.636245,54.4199811 153.922112,54.0603693 154.09446,53.6129261 L154.09446,53.6129261 L154.174006,53.6129261 L154.174006,55 L156.207386,55 L156.207386,47.3636364 L154.089489,47.3636364 L154.089489,51.7485795 C154.092803,52.0899621 154.025687,52.3766572 153.888139,52.6086648 C153.750592,52.8406723 153.570786,53.0155066 153.348722,53.1331676 C153.126657,53.2508286 152.888021,53.3096591 152.632812,53.3096591 C152.231771,53.3096591 151.911932,53.1787405 151.673295,52.9169034 C151.434659,52.6550663 151.313684,52.2987689 151.310369,51.8480114 L151.310369,51.8480114 L151.310369,47.3636364 L149.192472,47.3636364 L149.192472,52.2258523 C149.195786,52.8224432 149.30599,53.334517 149.523082,53.7620739 C149.740175,54.1896307 150.042614,54.5194129 150.430398,54.7514205 C150.818182,54.983428 151.267282,55.0994318 151.777699,55.0994318 Z M160.015625,55 L160.015625,50.5852273 C160.018939,50.2571023 160.081084,49.9762074 160.20206,49.7425426 C160.323035,49.5088778 160.492069,49.3307292 160.709162,49.2080966 C160.926255,49.085464 161.17732,49.0241477 161.462358,49.0241477 C161.8866,49.0241477 162.219697,49.1558949 162.461648,49.4193892 C162.703598,49.6828835 162.822917,50.0482955 162.819602,50.515625 L162.819602,50.515625 L162.819602,55 L164.9375,55 L164.9375,50.1377841 C164.9375,49.5445076 164.828125,49.0332623 164.609375,48.6040483 C164.390625,48.1748343 164.084044,47.8442235 163.689631,47.6122159 C163.295218,47.3802083 162.83286,47.2642045 162.302557,47.2642045 C161.735795,47.2642045 161.253551,47.3942945 160.855824,47.6544744 C160.458097,47.9146544 160.174716,48.2668087 160.005682,48.7109375 L160.005682,48.7109375 L159.916193,48.7109375 L159.916193,47.3636364 L157.897727,47.3636364 L157.897727,55 L160.015625,55 Z M167.671875,46.3792614 C167.986742,46.3792614 168.256037,46.2740294 168.479759,46.0635653 C168.70348,45.8531013 168.815341,45.6003788 168.815341,45.3053977 C168.815341,45.0137311 168.70348,44.7626657 168.479759,44.5522017 C168.256037,44.3417377 167.985085,44.2365057 167.666903,44.2365057 C167.35535,44.2365057 167.086884,44.3417377 166.861506,44.5522017 C166.636127,44.7626657 166.523438,45.0137311 166.523438,45.3053977 C166.523438,45.6003788 166.636127,45.8531013 166.861506,46.0635653 C167.086884,46.2740294 167.357008,46.3792614 167.671875,46.3792614 Z M168.720881,55 L168.720881,47.3636364 L166.602983,47.3636364 L166.602983,55 L168.720881,55 Z M173.213887,55.1070273 L173.463778,55.1044034 C173.738873,55.0944602 173.972538,55.0671165 174.164773,55.0223722 C174.357008,54.9776278 174.506155,54.9386837 174.612216,54.9055398 L174.612216,54.9055398 L174.279119,53.3295455 C174.226089,53.3394886 174.149858,53.3535748 174.050426,53.371804 C173.950994,53.3900331 173.851563,53.3991477 173.752131,53.3991477 C173.609612,53.3991477 173.484493,53.3776042 173.376776,53.334517 C173.269058,53.2914299 173.185369,53.2160275 173.12571,53.1083097 C173.066051,53.0005919 173.036222,52.8489583 173.036222,52.6534091 L173.036222,52.6534091 L173.036,48.955 L174.473011,48.9545455 L174.473011,47.3636364 L173.036,47.364 L173.036222,45.5340909 L170.918324,45.5340909 L170.918,47.364 L169.87429,47.3636364 L169.87429,48.9545455 L170.918,48.955 L170.918324,52.9318182 C170.915483,53.3607955 170.991782,53.726461 171.14722,54.0288149 L171.231534,54.1747159 C171.443655,54.5028409 171.741122,54.7447917 172.123935,54.9005682 C172.506747,55.0563447 172.953362,55.1242898 173.463778,55.1044034 L173.213887,55.1070273 Z M176.919034,46.3792614 C177.233902,46.3792614 177.503196,46.2740294 177.726918,46.0635653 C177.950639,45.8531013 178.0625,45.6003788 178.0625,45.3053977 C178.0625,45.0137311 177.950639,44.7626657 177.726918,44.5522017 C177.503196,44.3417377 177.232244,44.2365057 176.914062,44.2365057 C176.602509,44.2365057 176.334044,44.3417377 176.108665,44.5522017 C175.883286,44.7626657 175.770597,45.0137311 175.770597,45.3053977 C175.770597,45.6003788 175.883286,45.8531013 176.108665,46.0635653 C176.334044,46.2740294 176.604167,46.3792614 176.919034,46.3792614 Z M177.96804,55 L177.96804,47.3636364 L175.850142,47.3636364 L175.850142,55 L177.96804,55 Z M183.138494,55.1491477 C183.768229,55.1491477 184.324219,55.0522017 184.806463,54.8583097 C185.288707,54.6644176 185.68312,54.3926373 185.989702,54.0429688 C186.296283,53.6933002 186.49929,53.2831439 186.598722,52.8125 L186.598722,52.8125 L184.639915,52.6832386 C184.566998,52.8754735 184.460938,53.0378788 184.321733,53.1704545 C184.182528,53.3030303 184.015152,53.4024621 183.819602,53.46875 C183.624053,53.5350379 183.408617,53.5681818 183.173295,53.5681818 C182.818655,53.5681818 182.512074,53.493608 182.253551,53.3444602 C181.995028,53.1953125 181.795336,52.9831913 181.654474,52.7080966 C181.513613,52.4330019 181.443182,52.1065341 181.443182,51.7286932 L181.443182,51.7286932 L181.443,51.724 L186.643466,51.7237216 L186.643466,51.1420455 C186.643466,50.4924242 186.55232,49.9248343 186.370028,49.4392756 C186.187737,48.9537169 185.933357,48.5501894 185.606889,48.2286932 C185.280421,47.907197 184.899266,47.6660748 184.463423,47.5053267 C184.02758,47.3445786 183.557765,47.2642045 183.053977,47.2642045 C182.304924,47.2642045 181.652817,47.4299242 181.097656,47.7613636 C180.542495,48.092803 180.112453,48.555161 179.807528,49.1484375 C179.502604,49.741714 179.350142,50.431108 179.350142,51.2166193 C179.350142,52.022017 179.502604,52.7188684 179.807528,53.3071733 C180.112453,53.8954782 180.547467,54.3495502 181.112571,54.6693892 C181.677675,54.9892282 182.352983,55.1491477 183.138494,55.1491477 Z M181.453324,50.3031392 C181.477718,50.0706013 181.545597,49.8555634 181.65696,49.6580256 C181.796165,49.4111032 181.989228,49.2138968 182.236151,49.0664062 C182.483073,48.9189157 182.767282,48.8451705 183.088778,48.8451705 C183.397017,48.8451705 183.667969,48.9122869 183.901634,49.0465199 C184.135298,49.1807528 184.318419,49.3655303 184.450994,49.6008523 C184.58357,49.8361742 184.649858,50.1062973 184.649858,50.4112216 L184.649858,50.4112216 L181.447,50.412 L181.453324,50.3031392 Z M191.152699,55.1491477 C191.815578,55.1491477 192.401397,55.0439157 192.910156,54.8334517 C193.418916,54.6229877 193.819957,54.3288352 194.113281,53.9509943 C194.406605,53.5731534 194.553267,53.1339962 194.553267,52.6335227 C194.553267,52.0833333 194.370975,51.6392045 194.006392,51.3011364 C193.641809,50.9630682 193.088305,50.717803 192.345881,50.5653409 L192.345881,50.5653409 L190.963778,50.2869318 C190.609138,50.2107008 190.358902,50.1096117 190.213068,49.9836648 C190.067235,49.8577178 189.994318,49.7035985 189.994318,49.5213068 C189.994318,49.2926136 190.107008,49.1094934 190.332386,48.971946 C190.557765,48.8343987 190.834517,48.765625 191.162642,48.765625 C191.407907,48.765625 191.6192,48.8062263 191.79652,48.887429 C191.97384,48.9686316 192.117188,49.0763494 192.226562,49.2105824 C192.335938,49.3448153 192.407197,49.4947917 192.440341,49.6605114 L192.440341,49.6605114 L194.379261,49.5411932 C194.286458,48.8385417 193.962476,48.2833807 193.407315,47.8757102 C192.852154,47.4680398 192.09233,47.2642045 191.127841,47.2642045 C190.474905,47.2642045 189.905658,47.360322 189.420099,47.5525568 C188.934541,47.7447917 188.558357,48.0182292 188.291548,48.3728693 C188.02474,48.7275095 187.891335,49.1500947 187.891335,49.640625 C187.891335,50.2107008 188.072798,50.6796875 188.435724,51.0475852 C188.798651,51.415483 189.352983,51.6740057 190.098722,51.8231534 L190.098722,51.8231534 L191.421165,52.0866477 C191.752604,52.1529356 191.997869,52.2482244 192.15696,52.3725142 C192.316051,52.496804 192.397254,52.6550663 192.400568,52.8473011 C192.397254,53.0759943 192.282079,53.262429 192.055043,53.4066051 C191.828007,53.5507812 191.528883,53.6228693 191.15767,53.6228693 C190.77983,53.6228693 190.469934,53.5424953 190.227983,53.3817472 C189.986032,53.2209991 189.83357,52.9865057 189.770597,52.678267 L189.770597,52.678267 L187.6875,52.787642 C187.790246,53.5168087 188.140743,54.0926847 188.738991,54.5152699 C189.33724,54.9378551 190.141809,55.1491477 191.152699,55.1491477 Z" id="FindOutMoreOpportunities" fill="#5F59F7" fill-rule="nonzero"></path>
                <g id="Group-9">
                    <g id="Group-8-Copy-3" transform="translate(0.000000, 6.000000)">
                        <g id="Path-Copy" transform="translate(0.941186, 0.941186)">
                            <mask id="mask-2" fill="white">
                                <use xlink:href="#path-1"></use>
                            </mask>
                            <use id="Mask" fill-opacity="0.2" fill="#5F59F7" fill-rule="nonzero" xlink:href="#path-1"></use>
                            <path d="M20.5920007,11.8365033 C20.6785577,17.5094667 15.9474174,21.4990808 10.2735379,21.4990808 C4.5996584,21.4990808 0,16.8994224 0,11.2255429 C0,6.8644363 2.53679324,7.83962084 3.28434531,8.18410572 C6.08952361,9.47678024 5.95217201,13.9635641 9.16015062,13.6152086 C12.063221,13.2999631 15.9106322,10.8607315 17.4296708,9.86866085 C18.5007855,9.16912535 20.5470758,8.89211473 20.5920007,11.8365033 Z" fill="#5F59F7" fill-rule="nonzero" mask="url(#mask-2)"></path>
                        </g>
                    </g>
                    <path d="M37.6909971,31.0000021 L37.6909971,18.4810015 L55.2799981,18.4810015 L55.2799981,13.6060012 L37.7299971,13.6060012 L37.7299971,11.071001 C37.7299971,9.70600097 38.8609972,8.57500091 40.2259973,8.57500091 L60.1549984,8.57500091 L60.1549984,3.70000064 L40.1869973,3.70000064 C36.1309971,3.70000064 32.8549969,7.01500083 32.8549969,11.071001 L32.8549969,31.0000021 L37.6909971,31.0000021 Z M73.4589991,31.0000021 C80.9859995,31.0000021 87.1089999,24.8770018 87.1089999,17.3500014 C87.1089999,9.82300098 80.9859995,3.70000064 73.4589991,3.70000064 C65.9319987,3.70000064 59.8089983,9.82300098 59.8089983,17.3500014 C59.8089983,24.8770018 65.9319987,31.0000021 73.4589991,31.0000021 Z M73.4589991,26.1250019 C68.6229988,26.1250019 64.6839986,22.1860017 64.6839986,17.3500014 C64.6839986,12.5140011 68.6229988,8.57500091 73.4589991,8.57500091 C78.2949994,8.57500091 82.2339996,12.5140011 82.2339996,17.3500014 C82.2339996,22.1860017 78.2949994,26.1250019 73.4589991,26.1250019 Z M95.1090003,31.0000021 L95.1090003,13.6060012 L99.9060005,17.2720014 L103.884001,20.3530016 L107.862001,17.2720014 L112.659001,13.6060012 L112.659001,31.0000021 L117.534002,31.0000021 L117.534002,3.70000064 L112.659001,7.44400085 L103.884001,14.1910012 L95.1090003,7.44400085 L90.234,3.70000064 L90.234,31.0000021 L95.1090003,31.0000021 Z M134.309002,31.0000021 C141.836003,31.0000021 147.959003,24.8770018 147.959003,17.3500014 C147.959003,9.82300098 141.836003,3.70000064 134.309002,3.70000064 C126.782002,3.70000064 120.659002,9.82300098 120.659002,17.3500014 C120.659002,24.8770018 126.782002,31.0000021 134.309002,31.0000021 Z M134.309002,26.1250019 C129.473002,26.1250019 125.534002,22.1860017 125.534002,17.3500014 C125.534002,12.5140011 129.473002,8.57500091 134.309002,8.57500091 C139.145003,8.57500091 143.084003,12.5140011 143.084003,17.3500014 C143.084003,22.1860017 139.145003,26.1250019 134.309002,26.1250019 Z" id="FOMO" fill="#183B56" fill-rule="nonzero"></path>
                </g>
            </g>
        </g>
    </g>
</svg>