<?xml version="1.0" encoding="UTF-8"?>
<svg width="120px" height="28px" viewBox="0 0 120 28" version="1.1" xmlns="http://www.w3.org/2000/svg" xmlns:xlink="http://www.w3.org/1999/xlink">
    <title>Group 9</title>
    <defs>
        <path d="M16.4376597,8.21882984 C16.4376597,12.7579332 12.7579332,16.4376597 8.21882984,16.4376597 C3.6797265,16.4376597 2.32773795e-13,12.7579332 2.32773795e-13,8.21882984 C2.32773795e-13,3.6797265 3.6797265,-2.77998417e-13 8.21882984,-2.77998417e-13 C12.7579332,-2.77998417e-13 16.4376597,3.6797265 16.4376597,8.21882984 Z" id="path-1"></path>
    </defs>
    <g id="Symbols" stroke="none" stroke-width="1" fill="none" fill-rule="evenodd">
        <g id="Menu/Dashboard" transform="translate(-70.000000, -31.000000)">
            <g id="Group-9" transform="translate(70.000000, 31.000000)">
                <g id="Group-8-Copy-3" transform="translate(0.000000, 4.800000)">
                    <g id="Path-Copy" transform="translate(0.752949, 0.752949)">
                        <mask id="mask-2" fill="white">
                            <use xlink:href="#path-1"></use>
                        </mask>
                        <use id="Mask" fill-opacity="0.2" fill="#5F59F7" fill-rule="nonzero" xlink:href="#path-1"></use>
                        <path d="M16.4735996,9.46920206 C16.5428452,14.0075725 12.7579332,17.1992636 8.21882984,17.1992636 C3.6797265,17.1992636 0,13.5195371 0,8.98043378 C0,5.49154872 2.02943447,6.2716963 2.62747609,6.54728419 C4.8716186,7.58142374 4.76173732,11.1708506 7.32812006,10.8921662 C9.65057626,10.6399699 12.728505,8.68858468 13.9437358,7.89492821 C14.8006275,7.33529984 16.4376597,7.11369136 16.4735996,9.46920206 Z" fill="#5F59F7" fill-rule="nonzero" mask="url(#mask-2)"></path>
                    </g>
                </g>
                <path d="M30.1527959,24.1999999 L30.1527959,14.1847999 L44.2239958,14.1847999 L44.2239958,10.2847999 L30.1839959,10.2847999 L30.1839959,8.25679993 C30.1839959,7.16479994 31.0887959,6.25999994 32.1807959,6.25999994 L48.1239958,6.25999994 L48.1239958,2.35999996 L32.1495959,2.35999996 C28.9047959,2.35999996 26.2839959,5.01199994 26.2839959,8.25679993 L26.2839959,24.1999999 L30.1527959,24.1999999 Z M58.7671958,24.1999999 C64.7887957,24.1999999 69.6871957,19.3015999 69.6871957,13.2799999 C69.6871957,7.25839993 64.7887957,2.35999996 58.7671958,2.35999996 C52.7455958,2.35999996 47.8471958,7.25839993 47.8471958,13.2799999 C47.8471958,19.3015999 52.7455958,24.1999999 58.7671958,24.1999999 Z M58.7671958,20.2999999 C54.8983958,20.2999999 51.7471958,17.1487999 51.7471958,13.2799999 C51.7471958,9.41119992 54.8983958,6.25999994 58.7671958,6.25999994 C62.6359958,6.25999994 65.7871957,9.41119992 65.7871957,13.2799999 C65.7871957,17.1487999 62.6359958,20.2999999 58.7671958,20.2999999 Z M76.0871957,24.1999999 L76.0871957,10.2847999 L79.9247957,13.2175999 L83.1071957,15.6823999 L86.2895956,13.2175999 L90.1271956,10.2847999 L90.1271956,24.1999999 L94.0271956,24.1999999 L94.0271956,2.35999996 L90.1271956,5.35519994 L83.1071957,10.7527999 L76.0871957,5.35519994 L72.1871957,2.35999996 L72.1871957,24.1999999 L76.0871957,24.1999999 Z M107.447196,24.1999999 C113.468796,24.1999999 118.367195,19.3015999 118.367195,13.2799999 C118.367195,7.25839993 113.468796,2.35999996 107.447196,2.35999996 C101.425596,2.35999996 96.5271956,7.25839993 96.5271956,13.2799999 C96.5271956,19.3015999 101.425596,24.1999999 107.447196,24.1999999 Z M107.447196,20.2999999 C103.578396,20.2999999 100.427196,17.1487999 100.427196,13.2799999 C100.427196,9.41119992 103.578396,6.25999994 107.447196,6.25999994 C111.315996,6.25999994 114.467196,9.41119992 114.467196,13.2799999 C114.467196,17.1487999 111.315996,20.2999999 107.447196,20.2999999 Z" id="FOMO" fill="#183B56" fill-rule="nonzero"></path>
            </g>
        </g>
    </g>
</svg>