<svg xmlns="http://www.w3.org/2000/svg" xmlns:xlink="http://www.w3.org/1999/xlink" width="13" height="23" version="1.1"><rect id="backgroundrect" width="100%" height="100%" x="0" y="0" fill="none" stroke="none"/>
    <title>1336642A-2065-4162-9D2B-868A28E73940</title>
    <defs>
        <filter id="filter-1">
            <feColorMatrix in="SourceGraphic" type="matrix" values="0 0 0 0 0.094118 0 0 0 0 0.231373 0 0 0 0 0.337255 0 0 0 1.000000 0"/>
        </filter>
    </defs>
    
<g class="currentLayer" style=""><title>Layer 1</title><g id="LANDING" stroke="none" stroke-width="1" fill="#183b56" fill-rule="evenodd" class="selected" filter="" fill-opacity="1">
        <g id="002-facebook" filter="" fill="#183b56">
            <g id="svg_1" filter="" fill="#183b56">
                <path d="M3.903830510000006,12.738949415181196 L1.2252622500000143,12.738949415181196 C0.8048833279999883,12.738949415181196 0.6539780740000085,12.585349515180496 0.6539780740000085,12.162275815180692 C0.6539780740000085,11.071805715180744 0.6539780740000085,9.982233815180734 0.6539780740000085,8.893560215180514 C0.6539780740000085,8.473181295180439 0.8129675380000094,8.314191825180387 1.2279569899999956,8.314191825180387 L3.903830510000006,8.314191825180387 L3.903830510000006,5.9562972351805 C3.8720722900000055,4.897156115181133 4.126195249999995,3.8490152451804533 4.639493630000004,2.922023725181134 C5.173090360000003,1.986161465180885 6.028134069999993,1.275699625181005 7.0458934799999895,0.9225291151806232 C7.706400699999989,0.682200198180908 8.404514330000012,0.5617413771806241 9.107367039999986,0.5666694991805343 L11.756293199999988,0.5666694991805343 C12.13625110000001,0.5666694991805343 12.295240500000006,0.7338975431812288 12.295240500000006,1.1057712051806448 L12.295240500000006,4.180465755181103 C12.295240500000006,4.565813105180496 12.13355630000001,4.719413095181153 11.756293199999988,4.719413095181153 C11.031408999999996,4.719413095181153 10.3065249,4.719413095181153 9.58433543999999,4.749055195180517 C8.862146010000004,4.778697305180685 8.468714449999993,5.107455175180803 8.468714449999993,5.86198144518039 C8.452546030000008,6.67040245518092 8.468714449999993,7.462655035180433 8.468714449999993,8.287244465181175 L11.5811353,8.287244465181175 C12.023072100000007,8.287244465181175 12.173977400000012,8.43814971518077 12.173977400000012,8.88278126518071 C12.173977400000012,9.960675915181127 12.173977400000012,11.043960115181108 12.173977400000012,12.132633715180418 C12.173977400000012,12.571875815180647 12.033851099999993,12.709307315180922 11.589219500000013,12.71200211518044 L8.452546030000008,12.71200211518044 L8.452546030000008,21.48067521518078 C8.452546030000008,21.949559415180374 8.307030249999997,22.097769915180834 7.843535540000005,22.097769915180834 L4.469725210000007,22.097769915180834 C4.06281998,22.097769915180834 3.903830510000006,21.93878051518095 3.903830510000006,21.531875215180662 L3.903830510000006,12.738949415181196 z" id="Icon" fill="#183b56" fill-rule="nonzero" filter=""/>
            </g>
        </g>
    </g></g></svg>