<svg xmlns="http://www.w3.org/2000/svg" xmlns:xlink="http://www.w3.org/1999/xlink" width="24" height="23" version="1.1"><rect id="backgroundrect" width="100%" height="100%" x="0" y="0" fill="none" stroke="none"/>
    <title>F0DD67A2-658F-4D2B-B916-4DE734BE5974</title>
    <defs>
        <filter id="filter-1">
            <feColorMatrix in="SourceGraphic" type="matrix" values="0 0 0 0 0.094118 0 0 0 0 0.231373 0 0 0 0 0.337255 0 0 0 1.000000 0"/>
        </filter>
    </defs>
    
<g class="currentLayer" style=""><title>Layer 1</title><g id="LANDING" stroke="none" stroke-width="1" fill="#183b56" fill-rule="evenodd" class="selected" filter="" fill-opacity="1">
        <g id="007-linkedin" filter="" fill="#183b56">
            <g id="svg_1" filter="" fill="#183b56">
                <g id="Icon" fill="#183b56" fill-rule="nonzero" filter="">
                    <path d="M23.05893288302383,22.258945510059675 L23.05893288302383,14.352588010059662 C23.05893288302383,10.482946160059328 22.226259283023865,7.505262130059236 17.70449108302381,7.505262130059236 C15.529838583023832,7.505262130059236 14.07198608302383,8.696335740059112 13.47644928302384,9.82812515005935 L13.414470383023854,9.82812515005935 L13.414470383023854,7.866356850059674 L9.127144273023816,7.866356850059674 L9.127144273023816,22.258945510059675 L13.58962818302382,22.258945510059675 L13.58962818302382,15.131366910059114 C13.58962818302382,13.245051310059353 13.94533348302383,11.439577710058984 16.28436488302384,11.439577710058984 C18.623396383023817,11.439577710058984 18.607227883023825,13.595367010058908 18.607227883023825,15.252630110059727 L18.607227883023825,22.258945510059675 L23.05893288302383,22.258945510059675 z" id="Path" filter="" fill="#183b56"/>
                    <polygon id="Path" points="1.8567586541175842,7.866579353809357 6.324623644351959,7.866579353809357 6.324623644351959,22.259157478809357 1.8567586541175842,22.259157478809357 " filter="" fill="#183b56"/>
                    <path d="M4.087986683023814,0.7010296573744199 C3.0340213630238395,0.6966973058197254 2.0816636100238384,1.3289610430592804 1.6765675920238436,2.3019764900591326 C1.2714715730238597,3.274991940059408 1.4937644760238413,4.396298590058905 2.239424719023816,5.141182910059797 C2.985084963023837,5.88606723005978 4.106622433023858,6.107192600059534 5.07921560302384,5.7010837700590855 C6.051808773023822,5.2949749400595465 6.683080643023857,4.341959440059327 6.67766366302385,3.287999220059646 C6.67766366302385,2.6014310200589534 6.404706543023849,1.943022160059627 5.918976853023821,1.4577979140594837 C5.43324716302385,0.972573665058917 4.774554513023816,0.7003368348423464 4.087986683023814,0.7010296573744199 L4.087986683023814,0.7010296573744199 z" id="Path" filter="" fill="#183b56"/>
                </g>
            </g>
        </g>
    </g></g></svg>