<svg xmlns="http://www.w3.org/2000/svg" xmlns:xlink="http://www.w3.org/1999/xlink" viewBox="0 0 243.12 327.78"><defs><style>.cls-1{fill:#1b4256;}.cls-2{fill:url(#Dégradé_sans_nom_68);}.cls-3,.cls-4{fill:#fff;}.cls-4{stroke:#fff;stroke-linecap:round;stroke-miterlimit:10;stroke-width:4px;}</style><linearGradient id="Dégradé_sans_nom_68" x1="121.56" y1="320.78" x2="121.56" y2="11.67" gradientUnits="userSpaceOnUse"><stop offset="0" stop-color="#6a90a8"/><stop offset="0.47" stop-color="#203b54"/></linearGradient></defs><g id="Calque_2" data-name="Calque 2"><g id="Calque_20" data-name="Calque 20"><path class="cls-1" d="M188.59,147.69a26.8,26.8,0,0,1-38.52-4.46A458.22,458.22,0,0,0,96.36,143a26.81,26.81,0,0,1-39.08,4.3h-.72C23.83,152.91,0,163.14,0,178V305.58c0,12.25,13.47,22.2,30,22.2s30-9.95,30-22.2v-9.86c0-6.42,7.05-11.63,15.72-11.63s15.73,5.22,15.73,11.63v9.86c0,12.25,13.48,22.2,30,22.2s30-9.95,30-22.2v-9.86c0-6.42,7.05-11.63,15.73-11.63s15.73,5.22,15.73,11.63v9.86c0,12.25,13.47,22.2,30,22.2s30-9.95,30-22.2V178C243.12,163.45,220.28,153.34,188.59,147.69Zm-67,103.49c-.92,0-1.84-.05-2.74-.12h5.48C123.4,251.13,122.48,251.18,121.56,251.18Z"/><path class="cls-2" d="M121.56,0h0C54.53,0,0,52.62,0,117.3V290.61a30,30,0,1,0,60.07,0v-13.4a15.73,15.73,0,1,1,31.45,0v13.4a30,30,0,1,0,60.08,0v-13.4a15.73,15.73,0,1,1,31.46,0v13.4a30,30,0,1,0,60.06,0V117.3C243.12,52.62,188.59,0,121.56,0Z"/><path class="cls-3" d="M167.54,157.23a20.63,20.63,0,0,1-20.6-20.61V135.3a20.61,20.61,0,0,1,41.21,0v1.32A20.64,20.64,0,0,1,167.54,157.23Z"/><path class="cls-3" d="M167.54,116.2a19.11,19.11,0,0,1,19.11,19.1v1.32a19.11,19.11,0,1,1-38.21,0V135.3a19.1,19.1,0,0,1,19.1-19.1m0-3a22.13,22.13,0,0,0-22.1,22.1v1.32a22.11,22.11,0,1,0,44.21,0V135.3a22.13,22.13,0,0,0-22.11-22.1Z"/><path class="cls-4" d="M162.71,192.84c0,3.24-17.19,23.26-38.41,23.26s-38.4-20-38.4-23.26,17.19,6.9,38.4,6.9S162.71,189.6,162.71,192.84Z"/><path class="cls-3" d="M64.43,159.13a1.07,1.07,0,0,1-.52-.14,1,1,0,0,1-.48-.86V113.79a1,1,0,0,1,1-1,.93.93,0,0,1,.46.12l42.93,22.17a1,1,0,0,1,0,1.77L64.89,159A.92.92,0,0,1,64.43,159.13Z"/><path class="cls-3" d="M64.43,113.79,107.36,136,64.43,158.13V113.79m0-2a2,2,0,0,0-1,.3,2,2,0,0,0-1,1.7v44.34a2,2,0,0,0,1,1.71,2,2,0,0,0,1,.29,2,2,0,0,0,.92-.22l42.93-22.17a2,2,0,0,0,0-3.55L65.35,112a2,2,0,0,0-.92-.23Z"/></g></g></svg>