<svg xmlns="http://www.w3.org/2000/svg" xmlns:xlink="http://www.w3.org/1999/xlink" width="28" height="23" version="1.1"><rect id="backgroundrect" width="100%" height="100%" x="0" y="0" fill="none" stroke="none"/>
    <title>439AB427-07BB-451C-9963-C0AE5A55FBBB</title>
    <defs>
        <filter id="filter-1">
            <feColorMatrix in="SourceGraphic" type="matrix" values="0 0 0 0 0.094118 0 0 0 0 0.231373 0 0 0 0 0.337255 0 0 0 1.000000 0"/>
        </filter>
    </defs>
    
<g class="currentLayer" style=""><title>Layer 1</title><g id="LANDING" stroke="none" stroke-width="1" fill="#183b56" fill-rule="evenodd" class="selected" filter="" fill-opacity="1">
        <g id="004-twitter" filter="" fill="#183b56">
            <g id="svg_1" filter="" fill="#183b56">
                <path d="M26.946184448242178,3.2529676900003324 C25.948315648242186,3.688774799999919 24.892777748242196,3.978298940000059 23.812205648242184,4.112588689999939 C24.951296948242202,3.437107630000355 25.80279664824218,2.3669796800004406 26.20513184824219,1.1052625599995736 C25.138980748242176,1.7380835000003572 23.9723843482422,2.183759800000189 22.755868848242187,2.4229887900000904 C21.230373248242188,0.7915441850000207 18.86243074824219,0.2588003230002869 16.785202948242187,1.0796979099995951 C14.707975148242184,1.900595500000236 13.343940648242182,3.908175630000187 13.345848348242185,6.141725409999708 C13.342020848242186,6.558334129999821 13.38449904824219,6.974078150000423 13.47250104824218,7.3813042900001165 C9.095901398242177,7.166335140000228 5.018012278242196,5.097499790000256 2.259701668242201,1.6927151500003674 C0.8044868102421958,4.178720470000371 1.5380372782422,7.368070339999576 3.9331331482421774,8.968504190000203 C3.071958828242174,8.945289389999743 2.229021718242194,8.715145369999846 1.4755332982421976,8.297514760000013 L1.4755332982421976,8.356798970000455 C1.4805305882421749,10.944144600000072 3.299262168242194,13.173412400000416 5.832922508242177,13.69776710000042 C5.367736758242188,13.819987099999707 4.8883621882421835,13.879795599999852 4.4074068082422,13.875619700000243 C4.0610942582421785,13.882016999999905 3.715092628242189,13.851301499999863 3.3753226582421973,13.783998599999904 C4.0969971382421875,15.996288299999833 6.13400847824218,17.514061400000173 8.460290778242182,17.572798399999556 C6.536580798242198,19.076429400000052 4.165080958242186,19.893173999999817 1.7234490682421892,19.892966700000215 C1.2884042282422001,19.89666860000034 0.8535940652421914,19.87146219999977 0.4218912542421833,19.817514100000153 C2.9114810482421944,21.422658800000136 5.813412418242194,22.270771600000444 8.775574968242182,22.25906750000013 C18.786521748242194,22.25906750000013 24.2595319482422,13.96724069999982 24.2595319482422,6.780378010000277 C24.2595319482422,6.540546440000071 24.2595319482422,6.308799090000321 24.24066874824217,6.077051729999766 C25.306531348242174,5.307809300000372 26.2233375482422,4.350824340000145 26.946184448242178,3.2529676900003324 L26.946184448242178,3.2529676900003324 z" id="Icon" fill="#183b56" fill-rule="nonzero" filter=""/>
            </g>
        </g>
    </g></g></svg>