<svg xmlns="http://www.w3.org/2000/svg" xmlns:xlink="http://www.w3.org/1999/xlink" width="24" height="17" version="1.1"><rect id="backgroundrect" width="100%" height="100%" x="0" y="0" fill="none" stroke="none"/>
    <title>76CFE7F4-A3D9-4D24-B5CC-BE6A87D90B40</title>
    <defs>
        <filter id="filter-1">
            <feColorMatrix in="SourceGraphic" type="matrix" values="0 0 0 0 0.094118 0 0 0 0 0.231373 0 0 0 0 0.337255 0 0 0 1.000000 0"/>
        </filter>
    </defs>
    
<g class="currentLayer" style=""><title>Layer 1</title><g id="LANDING" stroke="none" stroke-width="1" fill="#183b56" fill-rule="evenodd" class="selected" fill-opacity="1" opacity="1" filter="">
        <g id="003-youtube" filter="" fill="#183b56" fill-opacity="1" opacity="1" stroke="none" stroke-opacity="1">
            <g id="svg_1" fill="#183b56" fill-opacity="1" opacity="1" stroke="none" stroke-opacity="1" filter="">
                <path d="M18.781815003515618,0.7757466069997463 L5.378194753515629,0.7757466069997463 C4.296403843515634,0.7757466069997463 3.2589596135156285,1.2056704899996475 2.4942706635156355,1.9708648400001039 C1.7295817235156221,2.7360592000004544 1.30034315951562,3.773787269999957 1.3010572655156238,4.85557794000033 L1.3010572655156238,12.104419600000256 C1.30034315951562,13.186210300000312 1.7295817235156221,14.223938400000407 2.4942706635156355,14.989132699999573 C3.2589596135156285,15.75432710000041 4.296403843515634,16.184250999999676 5.378194753515629,16.184250999999676 L18.781815003515618,16.184250999999676 C19.863605903515634,16.184250999999676 20.901050203515638,15.75432710000041 21.66573910351562,14.989132699999573 C22.43042800351563,14.223938400000407 22.85966660351562,13.186210300000312 22.85895250351564,12.104419600000256 L22.85895250351564,4.85557794000033 C22.85966660351562,3.773787269999957 22.43042800351563,2.7360592000004544 21.66573910351562,1.9708648400001039 C20.901050203515638,1.2056704899996475 19.863605903515634,0.7757466069997463 18.781815003515618,0.7757466069997463 L18.781815003515618,0.7757466069997463 zM9.239752423515625,11.783746000000065 L9.239752423515625,5.176251609999781 L14.920257303515626,8.479998779999733 L9.239752423515625,11.783746000000065 z" id="Icon" fill="#183b56" fill-rule="nonzero" fill-opacity="1" opacity="1" stroke="none" stroke-opacity="1" filter=""/>
            </g>
        </g>
    </g></g></svg>