<svg width="774" height="332" viewBox="0 0 774 332" fill="white" xmlns="http://www.w3.org/2000/svg">
    <path d="M49.4209 330.329H505.55C518.656 330.315 531.211 325.507 540.477 316.96C549.743 308.421 554.956 296.834 554.971 284.745V45.5836C554.956 33.5019 549.743 21.9153 540.477 13.3683C531.211 4.82173 518.657 0.0135227 505.55 0H49.4209C36.3148 0.0135453 23.7527 4.82173 14.4936 13.3683C5.22761 21.9148 0.0146611 33.5015 0 45.5836V284.745C0.0146837 296.833 5.22761 308.42 14.4936 316.96C23.7523 325.507 36.3142 330.315 49.4209 330.329ZM237.09 39.3473H465.428C472.241 39.3473 477.763 44.4468 477.763 50.7246C477.763 57.0092 472.241 62.1019 465.428 62.1019H237.09C230.284 62.1019 224.755 57.0092 224.755 50.7246C224.755 44.4468 230.284 39.3473 237.09 39.3473Z" fill="white"/>
    <path d="M754.866 328.959C759.147 326.826 762.73 323.677 765.234 319.823C767.73 315.977 769.059 311.582 769.081 307.099L772.994 41.9146C773.105 37.4247 771.908 32.9957 769.521 29.0814C767.128 25.1738 763.648 21.9232 759.426 19.6883C751.1 15.1576 740.747 15.1914 732.457 19.7695L579.649 102.823V242.419L727.912 328.176H727.905C736.062 332.977 746.407 333.275 754.866 328.962L754.866 328.959Z" fill="white"/>
</svg>
